<mxfile host="app.diagrams.net" agent="Mozilla/5.0 (Macintosh; Intel Mac OS X 10_15_7) AppleWebKit/605.1.15 (KHTML, like Gecko) Version/18.3 Safari/605.1.15" version="27.0.5">
  <diagram name="第 1 页" id="yyR5o05gEwBtLecgpsxU">
    <mxGraphModel dx="1018" dy="697" grid="1" gridSize="10" guides="1" tooltips="1" connect="1" arrows="1" fold="1" page="1" pageScale="1" pageWidth="827" pageHeight="1169" math="0" shadow="0">
      <root>
        <mxCell id="0" />
        <mxCell id="1" parent="0" />
        <mxCell id="YNclxRvdEfs6pl0bdQtO-29" value="" style="rounded=0;whiteSpace=wrap;html=1;strokeWidth=2;strokeColor=#B3B3B3;" vertex="1" parent="1">
          <mxGeometry x="81" y="720" width="110" height="120" as="geometry" />
        </mxCell>
        <mxCell id="YNclxRvdEfs6pl0bdQtO-36" value="" style="rounded=0;whiteSpace=wrap;html=1;strokeWidth=2;strokeColor=#B3B3B3;" vertex="1" parent="1">
          <mxGeometry x="202" y="720" width="110" height="120" as="geometry" />
        </mxCell>
        <mxCell id="YNclxRvdEfs6pl0bdQtO-37" value="" style="rounded=0;whiteSpace=wrap;html=1;strokeWidth=2;strokeColor=#B3B3B3;" vertex="1" parent="1">
          <mxGeometry x="322" y="720" width="110" height="120" as="geometry" />
        </mxCell>
        <mxCell id="YNclxRvdEfs6pl0bdQtO-38" value="" style="rounded=0;whiteSpace=wrap;html=1;strokeWidth=2;strokeColor=#B3B3B3;" vertex="1" parent="1">
          <mxGeometry x="442" y="720" width="110" height="120" as="geometry" />
        </mxCell>
        <mxCell id="YNclxRvdEfs6pl0bdQtO-39" value="" style="rounded=0;whiteSpace=wrap;html=1;strokeWidth=2;strokeColor=#B3B3B3;" vertex="1" parent="1">
          <mxGeometry x="563" y="720" width="110" height="120" as="geometry" />
        </mxCell>
        <mxCell id="YNclxRvdEfs6pl0bdQtO-40" value="" style="rounded=0;whiteSpace=wrap;html=1;strokeWidth=2;strokeColor=#B3B3B3;" vertex="1" parent="1">
          <mxGeometry x="683" y="720" width="110" height="120" as="geometry" />
        </mxCell>
        <mxCell id="YNclxRvdEfs6pl0bdQtO-41" value="" style="rounded=0;whiteSpace=wrap;html=1;strokeWidth=2;strokeColor=#B3B3B3;" vertex="1" parent="1">
          <mxGeometry x="801" y="720" width="110" height="120" as="geometry" />
        </mxCell>
        <mxCell id="YNclxRvdEfs6pl0bdQtO-16" value="" style="rounded=0;whiteSpace=wrap;html=1;strokeColor=#B3B3B3;strokeWidth=2;" vertex="1" parent="1">
          <mxGeometry x="81" y="380" width="200" height="120" as="geometry" />
        </mxCell>
        <mxCell id="YNclxRvdEfs6pl0bdQtO-1" value="" style="shape=image;verticalLabelPosition=bottom;labelBackgroundColor=default;verticalAlign=top;imageAspect=0;editableCssRules=.*;image=data:image/svg+xml,PHN2ZyB4bWxucz0iaHR0cDovL3d3dy53My5vcmcvMjAwMC9zdmciIGhlaWdodD0iMTMwIiB3aWR0aD0iMjYwIiB2aWV3Qm94PSIyMCA3MCAyNjAgMTMwIj4mI3hhOyAgJiN4YTsgIDxyZWN0IGZpbGw9ImxpZ2h0Z3JheSIgaGVpZ2h0PSIyMCIgd2lkdGg9IjI2MCIgeT0iMTgwIiB4PSIyMCIvPiYjeGE7ICAmI3hhOyAgJiN4YTsgIDxyZWN0IGZpbGw9ImdyYXkiIGhlaWdodD0iNDAiIHdpZHRoPSIzMCIgeT0iODAiIHg9IjQwIi8+JiN4YTsgIDxyZWN0IGZpbGw9ImRpbWdyZXkiIGhlaWdodD0iMjAiIHdpZHRoPSIxNSIgeT0iMTAwIiB4PSI0MCIvPiYjeGE7ICA8Y2lyY2xlIGZpbGw9ImJsYWNrIiByPSI1IiBjeT0iMTAwIiBjeD0iNDUiLz4mI3hhOyAgPGNpcmNsZSBmaWxsPSJibGFjayIgcj0iNSIgY3k9IjEwMCIgY3g9IjEzMCIvPiYjeGE7ICAmI3hhOyAgJiN4YTsgIDxyZWN0IGZpbGw9ImJyb3duIiBoZWlnaHQ9IjYwIiB3aWR0aD0iMzAiIHk9IjE0MCIgeD0iMTAwIi8+JiN4YTsgIDxjaXJjbGUgZmlsbD0idGFuIiByPSIxMCIgY3k9IjEyNSIgY3g9IjExMCIvPiYjeGE7ICA8bGluZSBzdHJva2U9InRhbiIgeTI9IjE4MCIgeDI9IjExNSIgeTE9IjE0NSIgeDE9IjExMCIvPiYjeGE7ICA8bGluZSBzdHJva2U9InRhbiIgeTI9IjE4MCIgeDI9IjEyNSIgeTE9IjE0NSIgeDE9IjEyMCIvPiYjeGE7ICAmI3hhOyAgJiN4YTsgIDxjaXJjbGUgZmlsbD0ibGlnaHRibHVlIiByPSIxMCIgY3k9IjEwMCIgY3g9IjUwIi8+JiN4YTsgIDxjaXJjbGUgZmlsbD0ibGlnaHRibHVlIiByPSIxMCIgY3k9IjkwIiBjeD0iNzAiLz4mI3hhOyAgPGNpcmNsZSBmaWxsPSJsaWdodGJsdWUiIHI9IjEwIiBjeT0iMTIwIiBjeD0iOTAiLz4mI3hhOyAgPGNpcmNsZSBmaWxsPSJsaWdodGJsdWUiIHI9IjEwIiBjeT0iMTMwIiBjeD0iMTEwIi8+JiN4YTsgIDxjaXJjbGUgZmlsbD0ibGlnaHRibHVlIiByPSIxMCIgY3k9IjEwMCIgY3g9IjEzMCIvPiYjeGE7ICA8Y2lyY2xlIGZpbGw9ImxpZ2h0Ymx1ZSIgcj0iMTAiIGN5PSI4MCIgY3g9IjE1MCIvPiYjeGE7ICA8Y2lyY2xlIGZpbGw9ImxpZ2h0Ymx1ZSIgcj0iMTAiIGN5PSI5NSIgY3g9IjE3MCIvPiYjeGE7PC9zdmc+;clipPath=inset(0% 16.54% 0.77% 0%);aspect=fixed;imageBorder=#B3B3B3;strokeWidth=2;fontFamily=Times New Roman;fontSize=14;" vertex="1" parent="1">
          <mxGeometry x="82" y="550" width="200" height="120" as="geometry" />
        </mxCell>
        <mxCell id="YNclxRvdEfs6pl0bdQtO-2" value="" style="shape=image;verticalLabelPosition=bottom;labelBackgroundColor=default;verticalAlign=top;imageAspect=0;editableCssRules=.*;image=data:image/svg+xml,PHN2ZyB4bWxucz0iaHR0cDovL3d3dy53My5vcmcvMjAwMC9zdmciIGhlaWdodD0iMjEwIiB3aWR0aD0iMzEwIiB2aWV3Qm94PSItNSAtNSAzMTAgMjEwIj4mI3hhOyAgJiN4YTsgIDxyZWN0IGZpbGw9IiNBREQ4RTYiIGhlaWdodD0iMTAwIiB3aWR0aD0iMzAwIiB5PSIwIiB4PSIwIi8+JiN4YTsgICYjeGE7ICAmI3hhOyAgPHJlY3QgZmlsbD0iI0IwQTk5NyIgaGVpZ2h0PSI3NSIgd2lkdGg9IjMwMCIgeT0iMTI1IiB4PSIwIi8+JiN4YTsgICYjeGE7ICAmI3hhOyAgPHBhdGggc3Ryb2tlLXdpZHRoPSIxMCIgc3Ryb2tlPSJncmF5IiBmaWxsPSJub25lIiBkPSJNNSw3MCBRNTAsNDAgMTIwLDcwIFExODAsMTIwIDI3MCw3MCBRMzI1LDQwIDI3MCw1Ii8+JiN4YTsgICYjeGE7ICAmI3hhOyAgPHJlY3QgZmlsbD0iIzAwM0M2MyIgcnk9IjUiIHJ4PSI1IiBoZWlnaHQ9IjQ1IiB3aWR0aD0iNDAiIHk9IjgwIiB4PSI4NSIvPiYjeGE7ICAmI3hhOyAgJiN4YTsgIDxjaXJjbGUgZmlsbD0iIzZDM0UwOSIgcj0iMTIiIGN5PSIxMjUiIGN4PSI4NiIvPiYjeGE7ICA8Y2lyY2xlIGZpbGw9IiM2QzNFMDkiIHI9IjEyIiBjeT0iMTI1IiBjeD0iMTQ2Ii8+JiN4YTsgICYjeGE7ICAmI3hhOyAgPGVsbGlwc2UgZmlsbD0iIzc1NEUyMSIgcnk9IjE0IiByeD0iMTAuNSIgY3k9IjEzMyIgY3g9Ijg2Ii8+JiN4YTsgIDxlbGxpcHNlIGZpbGw9IiM3NTRFMjEiIHJ5PSIxNCIgcng9IjEwLjUiIGN5PSIxMzMiIGN4PSIxNDYiLz4mI3hhOyAgJiN4YTsgICYjeGE7ICA8bGluZSBzdHJva2U9IiNENEFDMEQiIHN0cm9rZS13aWR0aD0iNiIgeTI9IjgyIiB4Mj0iODQiIHkxPSI5MiIgeDE9IjEyMSIvPiYjeGE7ICA8cmVjdCBmaWxsPSIjRDRBQzBEIiBoZWlnaHQ9IjYiIHdpZHRoPSI3IiB5PSI4OCIgeD0iODMiLz4mI3hhOyAgJiN4YTsgICYjeGE7ICA8cmVjdCBmaWxsPSIjNkI0MzIxIiBoZWlnaHQ9IjIwIiB3aWR0aD0iMTIiIHk9Ijg1IiB4PSI5NCIvPiYjeGE7ICA8cmVjdCBmaWxsPSIjRENEMUFBIiBoZWlnaHQ9IjciIHdpZHRoPSIyNiIgeT0iMTAyIiB4PSIxMDIiLz4mI3hhOyAgJiN4YTsgICYjeGE7ICA8Y2lyY2xlIGZpbGw9IiMwMDJBNEMiIHI9IjgiIGN5PSI3MyIgY3g9Ijk4Ii8+JiN4YTsgICYjeGE7ICAmI3hhOyAgPHJlY3QgZmlsbD0iIzAwMkE0QyIgaGVpZ2h0PSIxNiIgd2lkdGg9IjEwIiB5PSI3NiIgeD0iOTUiLz4mI3hhOyAgJiN4YTsgICYjeGE7ICA8cmVjdCBmaWxsPSIjMDAyQTRDIiBoZWlnaHQ9IjE4IiB3aWR0aD0iNCIgeT0iOTQiIHg9Ijk0Ii8+JiN4YTsgICYjeGE7ICAmI3hhOyAgPGxpbmUgc3Ryb2tlPSIjZTZiOThjIiBzdHJva2Utd2lkdGg9IjQiIHkyPSI5NyIgeDI9Ijg5IiB5MT0iODQiIHgxPSIxMDAiLz4mI3hhOyAgPGxpbmUgc3Ryb2tlPSIjZTZiOThjIiBzdHJva2Utd2lkdGg9IjQiIHkyPSI5MiIgeDI9IjEwNyIgeTE9Ijg0IiB4MT0iMTAwIi8+JiN4YTsgICYjeGE7ICAmI3hhOyAgPGNpcmNsZSBmaWxsPSIjNzc3IiByPSI4IiBjeT0iNTUiIGN4PSIyNDUiLz4mI3hhOyAgPGNpcmNsZSBmaWxsPSIjOUI4QjdEIiByPSI4IiBjeT0iMTA1IiBjeD0iMjA1Ii8+JiN4YTsgICYjeGE7ICAmI3hhOyAgPHJlY3QgZmlsbD0iI0M3QjhBNCIgaGVpZ2h0PSIyMiIgd2lkdGg9IjE0IiB5PSI2MCIgeD0iMjM2Ii8+JiN4YTsgIDxyZWN0IGZpbGw9IiNDN0I4QTQiIGhlaWdodD0iMjUiIHdpZHRoPSIxNSIgeT0iMTAwIiB4PSIyMDAiLz4mI3hhOyAgJiN4YTsgICYjeGE7ICA8cmVjdCBmaWxsPSIjNzc3IiBoZWlnaHQ9IjE1IiB3aWR0aD0iNSIgeT0iODUiIHg9IjIzOCIvPiYjeGE7ICA8cmVjdCBmaWxsPSIjNzc3IiBoZWlnaHQ9IjUiIHdpZHRoPSI3IiB5PSI5NyIgeD0iMjM2Ii8+JiN4YTsgICYjeGE7ICAmI3hhOyAgPGNpcmNsZSBmaWxsPSIjNzc3IiByPSI4IiBjeT0iOTIiIGN4PSIyMDgiLz4mI3hhOyAgJiN4YTsgICYjeGE7ICA8cmVjdCBmaWxsPSIjRjlFMUMxIiBoZWlnaHQ9IjQzIiB3aWR0aD0iMTAiIHk9IjE1NyIgeD0iMjU1Ii8+JiN4YTsgIDxyZWN0IGZpbGw9IiNGOUUxQzEiIGhlaWdodD0iNDMiIHdpZHRoPSIxMCIgeT0iMTU3IiB4PSIxODkiLz4mI3hhOzwvc3ZnPg==;clipPath=inset(7.64% 5% 11.08% 2.33%);aspect=fixed;imageBorder=#B3B3B3;strokeWidth=2;fontFamily=Times New Roman;fontSize=14;" vertex="1" parent="1">
          <mxGeometry x="292" y="550" width="200" height="120" as="geometry" />
        </mxCell>
        <mxCell id="YNclxRvdEfs6pl0bdQtO-3" value="" style="shape=image;verticalLabelPosition=bottom;labelBackgroundColor=default;verticalAlign=top;imageAspect=0;editableCssRules=.*;image=data:image/svg+xml,PHN2ZyB4bWxucz0iaHR0cDovL3d3dy53My5vcmcvMjAwMC9zdmciIGhlaWdodD0iMTUxIiB3aWR0aD0iMjg1IiB2aWV3Qm94PSI3LjUgNTEuNSAyODUgMTUxIj4mI3hhOyYjeGE7ICAmI3hhOyAgPHJlY3QgZmlsbD0iIzk5QjQ3QyIgaGVpZ2h0PSI0NSIgd2lkdGg9IjI4MCIgeT0iMTU1IiB4PSIxMCIvPiYjeGE7ICAmI3hhOyAgJiN4YTsgIDxyZWN0IGZpbGw9IiNBQUFBQUEiIGhlaWdodD0iMTAiIHdpZHRoPSIyNjAiIHk9IjEyMCIgeD0iMjAiLz4mI3hhOyAgJiN4YTsgIDxyZWN0IGZpbGw9IiM5OTk5OTkiIGhlaWdodD0iNCIgd2lkdGg9IjIzMCIgeT0iMTI1IiB4PSIzNSIvPiYjeGE7ICAmI3hhOyAgJiN4YTsgIDxsaW5lIHN0cm9rZT0iZ3JheSIgeTI9IjEzMCIgeDI9IjI4MCIgeTE9IjEzMCIgeDE9IjIwIi8+JiN4YTsgIDxsaW5lIHN0cm9rZT0iZ3JheSIgeTI9IjE0MCIgeDI9IjI4MCIgeTE9IjE0MCIgeDE9IjIwIi8+JiN4YTsgICYjeGE7ICAmI3hhOyAgPHJlY3QgZmlsbD0iIzAwMjA0NyIgcnk9IjE1IiByeD0iMTUiIGhlaWdodD0iMjUiIHdpZHRoPSI0MCIgeT0iOTAiIHg9IjgwIi8+JiN4YTsgICYjeGE7ICAmI3hhOyAgPGVsbGlwc2UgZmlsbD0iIzAwMkE2NyIgcnk9IjEyIiByeD0iMTIiIGN5PSI4MCIgY3g9IjkwIi8+JiN4YTsgICYjeGE7ICAmI3hhOyAgPGNpcmNsZSBmaWxsPSIjN0U4QTlDIiByPSIxMiIgY3k9IjExNSIgY3g9IjcyIi8+JiN4YTsgIDxjaXJjbGUgZmlsbD0iIzdFOEE5QyIgcj0iMTIiIGN5PSIxMTUiIGN4PSIxMjgiLz4mI3hhOyAgJiN4YTsgICYjeGE7ICA8cmVjdCBmaWxsPSIjOEQ5MDlCIiByeT0iNSIgcng9IjUiIGhlaWdodD0iMiIgd2lkdGg9IjM0IiB5PSI4NCIgeD0iODMiLz4mI3hhOyAgJiN4YTsgICYjeGE7ICA8Y2lyY2xlIGZpbGw9IiMwMDFBNDkiIHI9IjgiIGN5PSI2MiIgY3g9IjEwNSIvPiYjeGE7ICAmI3hhOyAgJiN4YTsgIDxyZWN0IGZpbGw9IiNFNUMxQ0UiIHJ5PSI2IiByeD0iNiIgaGVpZ2h0PSIyMCIgd2lkdGg9IjE0IiB5PSI3MCIgeD0iMTAyIi8+JiN4YTsgICYjeGE7ICAmI3hhOyAgPGxpbmUgc3Ryb2tlPSIjQUE1RTIxIiB5Mj0iMTA4IiB4Mj0iMTAzIiB5MT0iOTUiIHgxPSIxMDYiLz4mI3hhOyAgPGxpbmUgc3Ryb2tlPSIjQUE1RTIxIiB5Mj0iMTA4IiB4Mj0iMTIwIiB5MT0iOTUiIHgxPSIxMTQiLz4mI3hhOyAgJiN4YTsgICYjeGE7ICA8cGF0aCBzdHJva2Utd2lkdGg9IjUiIHN0cm9rZT0iI0FBQUFBQSIgZmlsbD0ibm9uZSIgZD0iTTM4LDEyNSBRNzIsMTEwIDEwNSwxMjUgUTEzOCwxNDAgMTc1LDE0MCBRMjEyLDEyNSAyNDIsMTI1Ii8+JiN4YTsgICYjeGE7ICAmI3hhOyAgPGNpcmNsZSBmaWxsPSIjMDAxQTQ5IiByPSI4IiBjeT0iMTUwIiBjeD0iMTUwIi8+JiN4YTsgICYjeGE7ICAmI3hhOyAgPHJlY3QgZmlsbD0iIzcwN0E3RiIgcnk9IjQiIHJ4PSI0IiBoZWlnaHQ9IjIwIiB3aWR0aD0iMTQiIHk9IjE1NSIgeD0iMTQyIi8+JiN4YTsgICYjeGE7ICAmI3hhOyAgPGxpbmUgc3Ryb2tlPSIjNzA3QTdGIiB5Mj0iMTkwIiB4Mj0iMTQ2IiB5MT0iMTc1IiB4MT0iMTQ0Ii8+JiN4YTsgICYjeGE7ICAmI3hhOyAgPGNpcmNsZSBmaWxsPSIjMDAxQTQ5IiByPSI4IiBjeT0iMTQ3IiBjeD0iMTg4Ii8+JiN4YTsgICYjeGE7ICAmI3hhOyAgPHJlY3QgZmlsbD0iIzZENzY3RiIgcnk9IjMiIHJ4PSIzIiBoZWlnaHQ9IjE5IiB3aWR0aD0iMTMiIHk9IjE1MiIgeD0iMTgzIi8+JiN4YTsgICYjeGE7ICAmI3hhOyAgPGxpbmUgc3Ryb2tlPSIjNkQ3NjdGIiB5Mj0iMTgyIiB4Mj0iMTg2IiB5MT0iMTY5IiB4MT0iMTg0Ii8+JiN4YTsgICYjeGE7ICAmI3hhOyAgPGNpcmNsZSBmaWxsPSIjMDAxQTQ5IiByPSI4IiBjeT0iMTQ1IiBjeD0iMjQwIi8+JiN4YTsgICYjeGE7ICAmI3hhOyAgPHJlY3QgZmlsbD0iIzc0N0U4NCIgcnk9IjQiIHJ4PSI0IiBoZWlnaHQ9IjE4IiB3aWR0aD0iMTQiIHk9IjE1MCIgeD0iMjMyIi8+JiN4YTsgICYjeGE7ICAmI3hhOyAgPGxpbmUgc3Ryb2tlPSIjNzQ3RTg0IiB5Mj0iMTgwIiB4Mj0iMjM5IiB5MT0iMTY3IiB4MT0iMjM2Ii8+JiN4YTsgICYjeGE7ICAmI3hhOyAgPGNpcmNsZSBmaWxsPSIjMDAxQTQ5IiByPSI4IiBjeT0iMTU4IiBjeD0iMjcwIi8+JiN4YTsgICYjeGE7ICAmI3hhOyAgPHJlY3QgZmlsbD0iIzY2NkM3MiIgcnk9IjIiIHJ4PSIyIiBoZWlnaHQ9IjE3IiB3aWR0aD0iMTMiIHk9IjE2MiIgeD0iMjYzIi8+JiN4YTsgICYjeGE7ICAmI3hhOyAgPGxpbmUgc3Ryb2tlPSIjNjY2QzcyIiB5Mj0iMTkzIiB4Mj0iMjY4IiB5MT0iMTc5IiB4MT0iMjY1Ii8+JiN4YTs8L3N2Zz4=;clipPath=inset(0% 8.6% 2.32% 5.44%);aspect=fixed;imageBorder=#B3B3B3;strokeWidth=2;fontFamily=Times New Roman;fontSize=14;" vertex="1" parent="1">
          <mxGeometry x="502" y="550" width="200" height="120" as="geometry" />
        </mxCell>
        <mxCell id="YNclxRvdEfs6pl0bdQtO-4" value="" style="shape=image;verticalLabelPosition=bottom;labelBackgroundColor=default;verticalAlign=top;imageAspect=0;editableCssRules=.*;image=data:image/svg+xml,PHN2ZyB4bWxucz0iaHR0cDovL3d3dy53My5vcmcvMjAwMC9zdmciIGhlaWdodD0iMjA0IiB3aWR0aD0iMjg0IiB2aWV3Qm94PSI4IC0yIDI4NCAyMDQiPiYjeGE7ICAmI3hhOyAgPHJlY3Qgb3BhY2l0eT0iMC42IiBmaWxsPSIjRjJFOURCIiByeT0iMTAiIHJ4PSIxMCIgaGVpZ2h0PSIyMDAiIHdpZHRoPSIyODAiIHk9IjAiIHg9IjEwIi8+JiN4YTsgICYjeGE7ICAmI3hhOyAgPHJlY3QgZmlsbD0iIzk5QUI4RCIgaGVpZ2h0PSI0NSIgd2lkdGg9IjI4MCIgeT0iMTQ1IiB4PSIxMCIvPiYjeGE7ICAmI3hhOyAgJiN4YTsgIDxwYXRoIG9wYWNpdHk9IjAuNyIgZmlsbD0iIzk5OUE2RSIgZD0iTTEwLDE2MCBRMzQsMTU1IDY4LDE2MSBRMTAxLDE2NyAxNDAsMTY1IFExNjAsMTY5IDIwMCwxNjUgUTIzMCwxNzIgMjc3LDE3OCIvPiYjeGE7ICAmI3hhOyAgJiN4YTsgIDxsaW5lIHN0cm9rZT0ibGlnaHRncmF5IiB5Mj0iMTYyIiB4Mj0iNDUiIHkxPSIxNjIiIHgxPSIyMCIvPiYjeGE7ICA8bGluZSBzdHJva2U9ImxpZ2h0Z3JheSIgeTI9IjE2MiIgeDI9Ijc4IiB5MT0iMTYyIiB4MT0iNjEiLz4mI3hhOyAgPGxpbmUgc3Ryb2tlPSJsaWdodGdyYXkiIHkyPSIxNjIiIHgyPSIxMjUiIHkxPSIxNjIiIHgxPSIxMTUiLz4mI3hhOyAgPGxpbmUgc3Ryb2tlPSJsaWdodGdyYXkiIHkyPSIxNjIiIHgyPSIxNzUiIHkxPSIxNjIiIHgxPSIxNjQiLz4mI3hhOyAgJiN4YTsgICYjeGE7ICA8cmVjdCBmaWxsPSIjODE3QjhGIiByeT0iMTQiIHJ4PSIxNCIgaGVpZ2h0PSIyNCIgd2lkdGg9IjQyIiB5PSIxMTIiIHg9IjExMCIvPiYjeGE7ICAmI3hhOyAgJiN4YTsgIDxjaXJjbGUgZmlsbD0iIzk5OTk5QyIgcj0iMTMiIGN5PSIxMzUiIGN4PSIxMTEiLz4mI3hhOyAgPGNpcmNsZSBmaWxsPSIjOTk5OTlDIiByPSIxMyIgY3k9IjEzNSIgY3g9IjE1MCIvPiYjeGE7ICAmI3hhOyAgJiN4YTsgIDxjaXJjbGUgZmlsbD0iIzAwMTk0MCIgcj0iNSIgY3k9IjEzNSIgY3g9IjExMSIvPiYjeGE7ICA8Y2lyY2xlIGZpbGw9IiMwMDE5NDAiIHI9IjUiIGN5PSIxMzUiIGN4PSIxNTAiLz4mI3hhOyAgJiN4YTsgICYjeGE7ICA8bGluZSBmaWxsPSJub25lIiBzdHJva2Utd2lkdGg9IjQiIHN0cm9rZT0iIzY0NkE2RSIgeTI9IjE0NiIgeDI9IjE1MSIgeTE9IjEzNCIgeDE9IjExMCIvPiYjeGE7ICAmI3hhOyAgJiN4YTsgIDxlbGxpcHNlIGZpbGw9IiM2NDVFNjQiIHJ5PSI1IiByeD0iNiIgY3k9IjExNCIgY3g9IjExMyIvPiYjeGE7ICAmI3hhOyAgJiN4YTsgIDxsaW5lIHN0cm9rZS13aWR0aD0iNCIgc3Ryb2tlPSIjNjQ2QTZDIiB5Mj0iMTA5IiB4Mj0iMTI1IiB5MT0iMTEyIiB4MT0iMTEzIi8+JiN4YTsgIDxsaW5lIHN0cm9rZS13aWR0aD0iNCIgc3Ryb2tlPSIjNjQ2QTZDIiB5Mj0iMTA4IiB4Mj0iMTUwIiB5MT0iMTEyIiB4MT0iMTQzIi8+JiN4YTsgICYjeGE7ICAmI3hhOyAgPHJlY3QgZmlsbD0iI0I0QjBBQyIgcnk9IjIiIHJ4PSIyIiBoZWlnaHQ9IjUiIHdpZHRoPSI0IiB5PSIxMDkiIHg9IjExMyIvPiYjeGE7ICAmI3hhOyAgJiN4YTsgIDxyZWN0IGZpbGw9IiNERjJBM0IiIHJ5PSIyIiByeD0iMiIgaGVpZ2h0PSI2IiB3aWR0aD0iNSIgeT0iMTE2IiB4PSIxNTYiLz4mI3hhOyAgJiN4YTsgICYjeGE7ICA8Y2lyY2xlIGZpbGw9IiMwMDE5M0EiIHI9IjUiIGN5PSI5OSIgY3g9IjEyNSIvPiYjeGE7ICAmI3hhOyAgJiN4YTsgIDxyZWN0IGZpbGw9IiMwRjIwMzQiIHJ5PSI4IiByeD0iOCIgaGVpZ2h0PSIxNSIgd2lkdGg9IjE1IiB5PSIxMDQiIHg9IjEyMCIvPiYjeGE7ICAmI3hhOyAgJiN4YTsgIDxsaW5lIHN0cm9rZS13aWR0aD0iNCIgc3Ryb2tlPSIjMDAxOTQzIiB5Mj0iMTI1IiB4Mj0iMTIzIiB5MT0iMTE3IiB4MT0iMTIxIi8+JiN4YTsgIDxsaW5lIHN0cm9rZS13aWR0aD0iNCIgc3Ryb2tlPSIjMDAxOTQzIiB5Mj0iMTMxIiB4Mj0iMTM0IiB5MT0iMTE5IiB4MT0iMTMxIi8+JiN4YTsgICYjeGE7ICAmI3hhOyAgJiN4YTsgIDxjaXJjbGUgZmlsbD0iIzAwMTYzNyIgcj0iNCIgY3k9IjU1IiBjeD0iMjI1Ii8+JiN4YTsgICYjeGE7ICA8cmVjdCBmaWxsPSIjRTBEMUJEIiByeT0iMyIgcng9IjMiIGhlaWdodD0iMTIiIHdpZHRoPSI3IiB5PSI1NyIgeD0iMjI0Ii8+JiN4YTsgICYjeGE7ICAmI3hhOyAgPGNpcmNsZSBmaWxsPSIjMDAxNjM3IiByPSI0IiBjeT0iNDYiIGN4PSIyMzQiLz4mI3hhOyAgJiN4YTsgIDxyZWN0IGZpbGw9IiNEMEMxQkIiIHJ5PSI0IiByeD0iNCIgaGVpZ2h0PSIxMSIgd2lkdGg9IjYiIHk9IjUyIiB4PSIyMzMiLz4mI3hhOyAgJiN4YTsgICYjeGE7ICA8Y2lyY2xlIGZpbGw9IiMwMDE2MzciIHI9IjQiIGN5PSI2MCIgY3g9IjI1NCIvPiYjeGE7ICAmI3hhOyAgPHJlY3QgZmlsbD0iI0M5QzRDRSIgcnk9IjMiIHJ4PSIzIiBoZWlnaHQ9IjkiIHdpZHRoPSI3IiB5PSI2NCIgeD0iMjU0Ii8+JiN4YTsgICYjeGE7ICAmI3hhOyAgPGNpcmNsZSBmaWxsPSIjMDAxNjM3IiByPSI0IiBjeT0iNDkiIGN4PSIyMDUiLz4mI3hhOyAgJiN4YTsgIDxyZWN0IGZpbGw9IiM5RTlEOUYiIHJ5PSIzIiByeD0iMyIgaGVpZ2h0PSI5IiB3aWR0aD0iNSIgeT0iNTQiIHg9IjIwNCIvPiYjeGE7ICAmI3hhOyAgJiN4YTsgIDxjaXJjbGUgZmlsbD0iIzAwMTYzNyIgcj0iNCIgY3k9Ijc0IiBjeD0iMjYwIi8+JiN4YTsgICYjeGE7ICA8cmVjdCBmaWxsPSIjQTlBQkFDIiByeT0iNCIgcng9IjQiIGhlaWdodD0iOCIgd2lkdGg9IjciIHk9IjgxIiB4PSIyNTgiLz4mI3hhOyAgJiN4YTsgICYjeGE7ICA8Y2lyY2xlIGZpbGw9IiMwMDE2MzciIHI9IjQiIGN5PSI2NyIgY3g9IjI3NSIvPiYjeGE7ICAmI3hhOyAgPHJlY3QgZmlsbD0iI0ExOUE5RSIgcnk9IjUiIHJ4PSI1IiBoZWlnaHQ9IjEyIiB3aWR0aD0iNSIgeT0iNzAiIHg9IjI3NSIvPiYjeGE7ICAmI3hhOyAgJiN4YTsgIDxyZWN0IG9wYWNpdHk9IjAuNSIgZmlsbD0iIzk5OUU5MCIgaGVpZ2h0PSIxMiIgd2lkdGg9IjQ1IiB5PSIxNzAiIHg9IjE5MCIvPiYjeGE7ICAmI3hhOyAgJiN4YTsgIDxsaW5lIHN0cm9rZT0iZ3JlZW4iIHkyPSI0MiIgeDI9IjI2OSIgeTE9IjI1IiB4MT0iMjcwIi8+JiN4YTsgIDxlbGxpcHNlIGZpbGw9ImdyZWVuIiByeT0iNCIgcng9IjMiIGN5PSIzNCIgY3g9IjI3MiIvPiYjeGE7ICA8ZWxsaXBzZSBmaWxsPSJncmVlbiIgcnk9IjQiIHJ4PSI0IiBjeT0iMzAiIGN4PSIyNzUiLz4mI3hhOzwvc3ZnPg==;clipPath=inset(9.31% 2.46% 12.25% 2.82%);aspect=fixed;imageBorder=#B3B3B3;strokeWidth=2;fontFamily=Times New Roman;fontSize=14;" vertex="1" parent="1">
          <mxGeometry x="712" y="550" width="200" height="120" as="geometry" />
        </mxCell>
        <mxCell id="YNclxRvdEfs6pl0bdQtO-6" value="&lt;font style=&quot;font-size: 15px;&quot; face=&quot;Helvetica&quot;&gt;&lt;b&gt;Person driving a plated motorcycle on a track with people watching&lt;/b&gt;&lt;/font&gt;" style="text;html=1;align=center;verticalAlign=middle;whiteSpace=wrap;rounded=1;fillColor=#E6E6E6;fontColor=#333333;strokeColor=none;arcSize=29;strokeWidth=2;fontFamily=Times New Roman;spacingLeft=10;" vertex="1" parent="1">
          <mxGeometry x="82" y="510" width="829" height="30" as="geometry" />
        </mxCell>
        <mxCell id="YNclxRvdEfs6pl0bdQtO-8" value="" style="shape=image;verticalLabelPosition=bottom;labelBackgroundColor=default;verticalAlign=top;aspect=fixed;imageAspect=0;editableCssRules=.*;image=data:image/svg+xml,PHN2ZyB4bWxucz0iaHR0cDovL3d3dy53My5vcmcvMjAwMC9zdmciIGhlaWdodD0iMTMwIiB3aWR0aD0iMTM1IiB2aWV3Qm94PSIzNSAyMCAxMzUgMTMwIj4mI3hhOyAgJiN4YTsgIDxyZWN0IHJ5PSI1IiByeD0iNSIgZmlsbD0icmVkIiB5PSI2MCIgeD0iMTAwIiBoZWlnaHQ9IjI1IiB3aWR0aD0iNzAiLz4mI3hhOyAgPHJlY3QgZmlsbD0icmVkIiB5PSI4NSIgeD0iMTAwIiBoZWlnaHQ9IjUwIiB3aWR0aD0iNDUiLz4mI3hhOyAgPHBvbHlnb24gZmlsbD0iZ3JheSIgcG9pbnRzPSIxMzAsODUgMTMwLDYwIDEzNSw2NSIvPiYjeGE7ICA8cmVjdCBmaWxsPSJncmF5IiB5PSIxMjAiIHg9IjExMCIgaGVpZ2h0PSIzMCIgd2lkdGg9IjM1Ii8+JiN4YTsgICYjeGE7ICAmI3hhOyAgPGNpcmNsZSBmaWxsPSJibHVlIiByPSIxNSIgY3k9IjExMCIgY3g9IjUwIi8+JiN4YTsgIDxjaXJjbGUgZmlsbD0iYmx1ZSIgcj0iMTUiIGN5PSIxMTAiIGN4PSIxMjAiLz4mI3hhOyAgPHJlY3QgZmlsbD0iY29ybmZsb3dlcmJsdWUiIGhlaWdodD0iNTAiIHdpZHRoPSI0MCIgeT0iODAiIHg9IjcwIi8+JiN4YTsgICYjeGE7ICAmI3hhOyAgPGNpcmNsZSBmaWxsPSJkYXJrYmx1ZSIgcj0iMTAiIGN5PSIxMTAiIGN4PSI3NSIvPiYjeGE7ICA8Y2lyY2xlIGZpbGw9ImRhcmtibHVlIiByPSIxMCIgY3k9IjExMCIgY3g9IjEyNSIvPiYjeGE7ICAmI3hhOyAgJiN4YTsgIDxsaW5lIHN0cm9rZT0iZGFya2dyYXkiIHkyPSIzMCIgeDI9IjUwIiB5MT0iNzUiIHgxPSI1MCIvPiYjeGE7ICA8Y2lyY2xlIGZpbGw9ImRhcmtncmF5IiByPSIxMCIgY3k9IjMwIiBjeD0iNTAiLz4mI3hhOyAgPGNpcmNsZSBmaWxsPSJkYXJrYmx1ZSIgcj0iMTAiIGN5PSI5MCIgY3g9IjEwMCIvPiYjeGE7ICAmI3hhOzwvc3ZnPg==;" vertex="1" parent="1">
          <mxGeometry x="123.88000000000001" y="385" width="114.24" height="110" as="geometry" />
        </mxCell>
        <mxCell id="YNclxRvdEfs6pl0bdQtO-9" value="" style="shape=image;verticalLabelPosition=bottom;labelBackgroundColor=default;verticalAlign=top;imageAspect=0;editableCssRules=.*;image=data:image/svg+xml,PHN2ZyB4bWxucz0iaHR0cDovL3d3dy53My5vcmcvMjAwMC9zdmciIGhlaWdodD0iMTgwIiB3aWR0aD0iMzEwIiB2aWV3Qm94PSItNSAyNSAzMTAgMTgwIj4mI3hhOyAgJiN4YTsgIDxyZWN0IGZpbGw9IiM5RkIzN0EiIGhlaWdodD0iNTAiIHdpZHRoPSIzMDAiIHk9IjE1MCIgeD0iMCIvPiYjeGE7JiN4YTsgICYjeGE7ICA8cmVjdCBmaWxsPSIjRkYwMDAwIiByeT0iMTUiIHJ4PSIxNSIgaGVpZ2h0PSI0MCIgd2lkdGg9IjIwMCIgeT0iNTAiIHg9IjUwIi8+JiN4YTsmI3hhOyAgJiN4YTsgIDxyZWN0IG9wYWNpdHk9IjAuNSIgZmlsbD0iI2NjYyIgaGVpZ2h0PSIyMCIgd2lkdGg9IjgwIiB5PSI2MCIgeD0iNjAiLz4mI3hhOyAgPHJlY3Qgb3BhY2l0eT0iMC41IiBmaWxsPSIjY2NjIiBoZWlnaHQ9IjIwIiB3aWR0aD0iMjAiIHk9IjYwIiB4PSIxNTUiLz4mI3hhOyYjeGE7ICAmI3hhOyAgPGNpcmNsZSBmaWxsPSIjODg4IiByPSIyMCIgY3k9IjEyMCIgY3g9IjcwIi8+JiN4YTsgIDxjaXJjbGUgZmlsbD0iIzg4OCIgcj0iMjAiIGN5PSIxMjAiIGN4PSIyMzAiLz4mI3hhOyYjeGE7ICAmI3hhOyAgPGxpbmUgc3Ryb2tlLXdpZHRoPSIxMCIgc3Ryb2tlPSIjMDAwMEZGIiB5Mj0iNTAiIHgyPSIxNTAiIHkxPSI4MCIgeDE9IjIwMCIvPiYjeGE7ICA8bGluZSBzdHJva2Utd2lkdGg9IjEwIiBzdHJva2U9IiMwMDAwRkYiIHkyPSI3MCIgeDI9IjE1MCIgeTE9IjUwIiB4MT0iMTUwIi8+JiN4YTsmI3hhOyAgJiN4YTsgIDxyZWN0IGZpbGw9IiMwMDY2OTkiIGhlaWdodD0iMjAiIHdpZHRoPSI0MCIgeT0iNzUiIHg9IjE1MCIvPiYjeGE7JiN4YTsgICYjeGE7ICA8bGluZSBzdHJva2Utd2lkdGg9IjgiIHN0cm9rZT0iIzAwMDBGRiIgeTI9IjMwIiB4Mj0iMTAwIiB5MT0iNzAiIHgxPSIxMzUiLz4mI3hhOyYjeGE7ICAmI3hhOyAgPGNpcmNsZSBmaWxsPSIjMDAwMEZGIiByPSIyMCIgY3k9IjExMCIgY3g9IjE1MCIvPiYjeGE7ICA8Y2lyY2xlIGZpbGw9IiMwMDAwRkYiIHI9IjIwIiBjeT0iMTEwIiBjeD0iMjAwIi8+JiN4YTsmI3hhOyAgJiN4YTsgIDxlbGxpcHNlIGZpbGw9IiMwMDAwRkYiIHJ5PSIxNSIgcng9IjciIGN5PSIxMjUiIGN4PSIxMzAiLz4mI3hhOyAgPGVsbGlwc2UgZmlsbD0iIzAwMDBGRiIgcnk9IjE1IiByeD0iNyIgY3k9IjEyNSIgY3g9IjIxMCIvPiYjeGE7PC9zdmc+;clipPath=inset(0% 4.67% 6.9% 4%);aspect=fixed;strokeColor=#B3B3B3;strokeWidth=2;imageBorder=#B3B3B3;" vertex="1" parent="1">
          <mxGeometry x="291" y="380" width="200" height="120" as="geometry" />
        </mxCell>
        <mxCell id="YNclxRvdEfs6pl0bdQtO-10" value="" style="shape=image;verticalLabelPosition=bottom;labelBackgroundColor=default;verticalAlign=top;imageAspect=0;editableCssRules=.*;image=data:image/svg+xml,PHN2ZyB4bWxucz0iaHR0cDovL3d3dy53My5vcmcvMjAwMC9zdmciIGhlaWdodD0iMjA2IiB3aWR0aD0iMzA2IiB2aWV3Qm94PSItMyAtMyAzMDYgMjA2Ij4mI3hhOyAgJiN4YTsgIDxyZWN0IGZpbGw9IiM5OUNDNjYiIGhlaWdodD0iNzUiIHdpZHRoPSIzMDAiIHk9IjEyNSIgeD0iMCIvPiYjeGE7JiN4YTsgICYjeGE7ICA8cmVjdCBmaWxsPSIjQUREOEU2IiBoZWlnaHQ9IjEwMCIgd2lkdGg9IjMwMCIgeT0iMCIgeD0iMCIvPiYjeGE7JiN4YTsgICYjeGE7ICA8cmVjdCBmaWxsPSIjQ0MyMTI5IiByeT0iMjAiIHJ4PSIyMCIgaGVpZ2h0PSI0MCIgd2lkdGg9IjEyMCIgeT0iNzAiIHg9IjQwIi8+JiN4YTsmI3hhOyAgJiN4YTsgIDxjaXJjbGUgZmlsbD0iI0MyM0M0MiIgcj0iMjAiIGN5PSIxMTAiIGN4PSI1NSIvPiYjeGE7ICA8Y2lyY2xlIGZpbGw9IiNDMjNDNDIiIHI9IjIwIiBjeT0iMTEwIiBjeD0iMTU1Ii8+JiN4YTsmI3hhOyAgJiN4YTsgIDxsaW5lIHN0cm9rZS13aWR0aD0iNiIgc3Ryb2tlPSIjMDA2REIxIiB5Mj0iMTUwIiB4Mj0iMjU1IiB5MT0iMTIwIiB4MT0iMjAwIi8+JiN4YTsgIDxsaW5lIHN0cm9rZS13aWR0aD0iNiIgc3Ryb2tlPSIjMDA2REIxIiB5Mj0iMTY1IiB4Mj0iMjQ1IiB5MT0iMTQyIiB4MT0iMjIwIi8+JiN4YTsgIDxsaW5lIHN0cm9rZS13aWR0aD0iNCIgc3Ryb2tlPSIjMDA2REIxIiB5Mj0iMTc5IiB4Mj0iMjQwIiB5MT0iMTY1IiB4MT0iMjMwIi8+JiN4YTsmI3hhOyAgJiN4YTsgIDxjaXJjbGUgZmlsbD0iIzAwN0JGMSIgcj0iMjUiIGN5PSIxNjUiIGN4PSIxOTUiLz4mI3hhOyAgJiN4YTsgIDxjaXJjbGUgc3Ryb2tlLXdpZHRoPSI1IiBzdHJva2U9IiNDQ0NDQ0MiIGZpbGw9Im5vbmUiIHI9IjIwIiBjeT0iMTY1IiBjeD0iMTk1Ii8+JiN4YTsmI3hhOyAgJiN4YTsgIDxjaXJjbGUgZmlsbD0iIzAwN0JGMSIgcj0iMjUiIGN5PSIxNjUiIGN4PSIyNjUiLz4mI3hhOyAgJiN4YTsgIDxjaXJjbGUgc3Ryb2tlLXdpZHRoPSI1IiBzdHJva2U9IiNDQ0NDQ0MiIGZpbGw9Im5vbmUiIHI9IjIwIiBjeT0iMTY1IiBjeD0iMjY1Ii8+JiN4YTsmI3hhOyAgJiN4YTsgIDxsaW5lIHN0cm9rZS13aWR0aD0iNCIgc3Ryb2tlPSIjOTk5OTk5IiB5Mj0iMTYwIiB4Mj0iMjM1IiB5MT0iMTQ1IiB4MT0iMjM1Ii8+JiN4YTs8L3N2Zz4=;clipPath=inset(13.37% 2.67% 3.47% 2.33%);aspect=fixed;strokeColor=#B3B3B3;strokeWidth=2;imageBorder=#B3B3B3;" vertex="1" parent="1">
          <mxGeometry x="502" y="380" width="200" height="120" as="geometry" />
        </mxCell>
        <mxCell id="YNclxRvdEfs6pl0bdQtO-11" value="" style="shape=image;verticalLabelPosition=bottom;labelBackgroundColor=default;verticalAlign=top;imageAspect=0;editableCssRules=.*;image=data:image/svg+xml,PHN2ZyB4bWxucz0iaHR0cDovL3d3dy53My5vcmcvMjAwMC9zdmciIGhlaWdodD0iMjA1IiB3aWR0aD0iMjg1IiB2aWV3Qm94PSI3LjUgLTIuNSAyODUgMjA1Ij4mI3hhOyAgICAmI3hhOyAgICA8cmVjdCBvcGFjaXR5PSIwLjYiIGZpbGw9IiNGMkU5REIiIHJ5PSIxMCIgcng9IjEwIiBoZWlnaHQ9IjIwMCIgd2lkdGg9IjI4MCIgeT0iMCIgeD0iMTAiLz4mI3hhOyAgJiN4YTsgICAgJiN4YTsgICAgPHJlY3QgZmlsbD0iI0FBQUFBQyIgaGVpZ2h0PSI2MCIgd2lkdGg9IjI4MCIgeT0iMTQwIiB4PSIxMCIvPiYjeGE7ICAmI3hhOyAgICAmI3hhOyAgICA8bGluZSBzdHJva2U9ImdyYXkiIHkyPSIxNjciIHgyPSIzNSIgeTE9IjE2MiIgeDE9IjIwIi8+JiN4YTsgICAgPGxpbmUgc3Ryb2tlPSJncmF5IiB5Mj0iMTY5IiB4Mj0iNTIiIHkxPSIxNjMiIHgxPSI0NCIvPiYjeGE7ICAgIDxsaW5lIHN0cm9rZT0iZ3JheSIgeTI9IjE3MCIgeDI9IjcwIiB5MT0iMTY1IiB4MT0iNjIiLz4mI3hhOyAgICA8bGluZSBzdHJva2U9ImdyYXkiIHkyPSIxNjkiIHgyPSI5NSIgeTE9IjE2NSIgeDE9Ijg1Ii8+JiN4YTsgICAgPGxpbmUgc3Ryb2tlPSJncmF5IiB5Mj0iMTc1IiB4Mj0iMTQ0IiB5MT0iMTY5IiB4MT0iMTMxIi8+JiN4YTsgICAgPGxpbmUgc3Ryb2tlPSJncmF5IiB5Mj0iMTcwIiB4Mj0iMTg1IiB5MT0iMTcyIiB4MT0iMTc3Ii8+JiN4YTsgICYjeGE7ICAgICYjeGE7ICAgIDxyZWN0IGZpbGw9IiNDQzFEMjYiIHJ5PSIxNSIgcng9IjE1IiBoZWlnaHQ9IjM0IiB3aWR0aD0iOTYiIHk9IjEwMyIgeD0iNTAiLz4mI3hhOyAgJiN4YTsgICAgJiN4YTsgICAgPGNpcmNsZSBmaWxsPSIjOTk5OTlCIiByPSIxMyIgY3k9IjEzNCIgY3g9IjYxIi8+JiN4YTsgICAgPGNpcmNsZSBmaWxsPSIjOTk5OTlCIiByPSIxMyIgY3k9IjEzNCIgY3g9IjE0NCIvPiYjeGE7ICAmI3hhOyAgICAmI3hhOyAgICA8bGluZSBzdHJva2U9ImJsYWNrIiB5Mj0iMTM0IiB4Mj0iNjUiIHkxPSIxMTIiIHgxPSI1MSIvPiYjeGE7ICAgIDxsaW5lIHN0cm9rZT0iYmxhY2siIHkyPSIxNDAiIHgyPSIxNjIiIHkxPSIxMTEiIHgxPSIxNDQiLz4mI3hhOyAgJiN4YTsgICAgJiN4YTsgICAgPGxpbmUgc3Ryb2tlLWxpbmVjYXA9InNxdWFyZSIgc3Ryb2tlLXdpZHRoPSI0IiBzdHJva2U9IiMwMDY2Q0UiIHkyPSIxNTIiIHgyPSIyNDIiIHkxPSIxMjEiIHgxPSIxOTAiLz4mI3hhOyAgJiN4YTsgICAgJiN4YTsgICAgPGxpbmUgc3Ryb2tlLWxpbmVjYXA9InNxdWFyZSIgc3Ryb2tlLXdpZHRoPSI0IiBzdHJva2U9IiMwMDY2Q0UiIHkyPSIxNjIiIHgyPSIyNDIiIHkxPSIxNTIiIHgxPSIyMzQiLz4mI3hhOyAgJiN4YTsgICAgJiN4YTsgICAgPGxpbmUgc3Ryb2tlLWxpbmVjYXA9InNxdWFyZSIgc3Ryb2tlLXdpZHRoPSI0IiBzdHJva2U9IiMwMDY2Q0UiIHkyPSIxMzIiIHgyPSIyMDAiIHkxPSIxMjIiIHgxPSIxOTAiLz4mI3hhOyAgJiN4YTsgICAgJiN4YTsgICAgPGxpbmUgc3Ryb2tlLWxpbmVjYXA9InNxdWFyZSIgc3Ryb2tlLXdpZHRoPSI0IiBzdHJva2U9IiMwMDY2Q0UiIHkyPSIxNjAiIHgyPSIyMTYiIHkxPSIxNDIiIHgxPSIyMTQiLz4mI3hhOyAgJiN4YTsgICAgJiN4YTsgICAgPGxpbmUgc3Ryb2tlLWxpbmVjYXA9InNxdWFyZSIgc3Ryb2tlLXdpZHRoPSI0IiBzdHJva2U9IiMwMDY2Q0UiIHkyPSIxNjYiIHgyPSIyNDUiIHkxPSIxNTIiIHgxPSIyNDEiLz4mI3hhOyAgJiN4YTsgICAgJiN4YTsgICAgPGNpcmNsZSBzdHJva2Utd2lkdGg9IjQiIHN0cm9rZT0iIzAwNjZDRSIgZmlsbD0ibm9uZSIgcj0iMTUiIGN5PSIxNTQiIGN4PSIxOTEiLz4mI3hhOyAgICA8Y2lyY2xlIHN0cm9rZS13aWR0aD0iNCIgc3Ryb2tlPSIjMDA2NkNFIiBmaWxsPSJub25lIiByPSIxNSIgY3k9IjE1NCIgY3g9IjI0NiIvPiYjeGE7ICAmI3hhOyAgICAmI3hhOyAgICA8ZWxsaXBzZSBvcGFjaXR5PSIwLjkiIHN0cm9rZS13aWR0aD0iMyIgc3Ryb2tlPSIjMDA1OUM0IiBmaWxsPSJub25lIiByeT0iNCIgcng9IjE0IiBjeT0iMTU0IiBjeD0iMTkxIi8+JiN4YTsgICAgPGVsbGlwc2Ugb3BhY2l0eT0iMC45IiBzdHJva2Utd2lkdGg9IjMiIHN0cm9rZT0iIzAwNTlDNCIgZmlsbD0ibm9uZSIgcnk9IjQiIHJ4PSIxNCIgY3k9IjE1NCIgY3g9IjI0NiIvPiYjeGE7ICAmI3hhOyAgICAmI3hhOyAgICA8ZWxsaXBzZSBvcGFjaXR5PSIwLjYiIHN0cm9rZS13aWR0aD0iMyIgc3Ryb2tlPSJncmF5IiBmaWxsPSJub25lIiByeT0iNyIgcng9IjE0IiBjeT0iMTU0IiBjeD0iMTkxIi8+JiN4YTsgICAgPGVsbGlwc2Ugb3BhY2l0eT0iMC42IiBzdHJva2Utd2lkdGg9IjMiIHN0cm9rZT0iZ3JheSIgZmlsbD0ibm9uZSIgcnk9IjciIHJ4PSIxNCIgY3k9IjE1NCIgY3g9IjI0NiIvPiYjeGE7ICAmI3hhOyAgICAmI3hhOyAgICA8bGluZSBzdHJva2UtbGluZWNhcD0icm91bmQiIHN0cm9rZS13aWR0aD0iNSIgc3Ryb2tlPSIjMDA2NkNFIiB5Mj0iMTI1IiB4Mj0iMjAyIiB5MT0iMTI1IiB4MT0iMTkxIi8+JiN4YTsgICAgPGxpbmUgc3Ryb2tlLWxpbmVjYXA9InJvdW5kIiBzdHJva2Utd2lkdGg9IjUiIHN0cm9rZT0iIzAwNjZDRSIgeTI9IjEyNSIgeDI9IjIyNCIgeTE9IjEyNSIgeDE9IjIxNCIvPiYjeGE7ICAmI3hhOyAgICAmI3hhOyAgICA8bGluZSBzdHJva2UtbGluZWNhcD0ic3F1YXJlIiBzdHJva2Utd2lkdGg9IjQiIHN0cm9rZT0iIzAwNjZDRSIgeTI9IjEyOSIgeDI9IjE5NyIgeTE9IjEyNCIgeDE9IjE5NCIvPiYjeGE7ICAmI3hhOyAgICAmI3hhOyAgICA8bGluZSBzdHJva2UtbGluZWNhcD0ic3F1YXJlIiBzdHJva2Utd2lkdGg9IjQiIHN0cm9rZT0iIzAwNjZDRSIgeTI9IjE1MCIgeDI9IjIwMiIgeTE9IjE0MSIgeDE9IjIwMiIvPiYjeGE7ICAmI3hhOyAgICAmI3hhOyAgICA8bGluZSBzdHJva2UtbGluZWNhcD0ic3F1YXJlIiBzdHJva2Utd2lkdGg9IjQiIHN0cm9rZT0iIzAwNjZDRSIgeTI9IjE1MCIgeDI9IjIzMiIgeTE9IjE0MSIgeDE9IjIyNSIvPiYjeGE7ICAmI3hhOyAgICAmI3hhOyAgICA8cmVjdCBmaWxsPSIjMDA1NEM5IiByeT0iMyIgcng9IjMiIGhlaWdodD0iOCIgd2lkdGg9IjI0IiB5PSIxNDEiIHg9IjE5MiIvPiYjeGE7ICAmI3hhOyAgICAmI3hhOyAgICA8Y2lyY2xlIGZpbGw9IiMwMDU0QzkiIHI9IjQiIGN5PSIxMjUiIGN4PSIxOTIiLz4mI3hhOyAgICA8ZWxsaXBzZSBmaWxsPSIjMDA1NEM5IiByeT0iNC41IiByeD0iMi41IiBjeT0iMTE4IiBjeD0iMTkyIi8+JiN4YTsgICYjeGE7ICAgICYjeGE7ICAgIDxjaXJjbGUgZmlsbD0iIzAwNTRDOSIgcj0iNCIgY3k9IjEyNSIgY3g9IjIyOCIvPiYjeGE7ICAgIDxlbGxpcHNlIGZpbGw9IiMwMDU0QzkiIHJ5PSI0LjUiIHJ4PSIyLjUiIGN5PSIxMTkiIGN4PSIyMjgiLz4mI3hhOyAgJiN4YTsgICAgJiN4YTsgICAgPGxpbmUgc3Ryb2tlLWxpbmVjYXA9InJvdW5kIiBzdHJva2Utd2lkdGg9IjMiIHN0cm9rZT0iIzAwNjZDRSIgeTI9IjEzMiIgeDI9IjE5MiIgeTE9IjEyNSIgeDE9IjE5MiIvPiYjeGE7ICAmI3hhOyAgICAmI3hhOyAgICA8bGluZSBzdHJva2UtbGluZWNhcD0icm91bmQiIHN0cm9rZS13aWR0aD0iMyIgc3Ryb2tlPSIjMDA2NkNFIiB5Mj0iMTMwIiB4Mj0iMjMzIiB5MT0iMTI1IiB4MT0iMjI4Ii8+JiN4YTsgICYjeGE7ICAgICYjeGE7ICAgIDxwYXRoIG9wYWNpdHk9IjAuNSIgc3Ryb2tlPSJsaWdodGdyYXkiIGZpbGw9Im5vbmUiIGQ9Ik0yMDUsMTM1IFEyMTAsMTQzIDIyMywxNDIgUTI0MCwxNTIgMjQ0LDE1NyBaIi8+JiN4YTs8L3N2Zz4=;clipPath=inset(14.88% 3.68% 8.05% 3.33%);aspect=fixed;strokeColor=#B3B3B3;strokeWidth=2;imageBorder=#B3B3B3;" vertex="1" parent="1">
          <mxGeometry x="711" y="380" width="200" height="120" as="geometry" />
        </mxCell>
        <mxCell id="YNclxRvdEfs6pl0bdQtO-12" value="&lt;font style=&quot;font-size: 16px;&quot; face=&quot;Helvetica&quot;&gt;A red car and a blue bicycle&lt;/font&gt;" style="text;html=1;align=center;verticalAlign=middle;whiteSpace=wrap;rounded=1;fillColor=#E6E6E6;fontColor=#333333;strokeColor=none;arcSize=23;strokeWidth=2;fontFamily=Courier New;fontSize=14;fontStyle=1;spacingLeft=10;" vertex="1" parent="1">
          <mxGeometry x="81" y="340" width="829" height="30" as="geometry" />
        </mxCell>
        <mxCell id="YNclxRvdEfs6pl0bdQtO-18" value="" style="shape=image;verticalLabelPosition=bottom;labelBackgroundColor=default;verticalAlign=top;aspect=fixed;imageAspect=0;editableCssRules=.*;image=data:image/svg+xml,PHN2ZyB4bWxucz0iaHR0cDovL3d3dy53My5vcmcvMjAwMC9zdmciIGhlaWdodD0iMzg4IiB3aWR0aD0iMTg4IiB2aWV3Qm94PSI2NiAxNiAxODggMzg4Ij4mI3hhOyAgJiN4YTsgIDxjaXJjbGUgc3Ryb2tlLXdpZHRoPSI4IiBzdHJva2U9ImJsYWNrIiBmaWxsPSIjRjlDMTdFIiByPSI4MCIgY3k9IjEwMCIgY3g9IjE1MCIvPiYjeGE7ICAmI3hhOyAgJiN4YTsgIDxjaXJjbGUgZmlsbD0iIzRDNEM0QyIgcj0iMTAiIGN5PSIxMzAiIGN4PSIxMjAiLz4mI3hhOyAgPGNpcmNsZSBmaWxsPSIjNEM0QzRDIiByPSIxMCIgY3k9IjEzMCIgY3g9IjE4MCIvPiYjeGE7ICAmI3hhOyAgPHJlY3QgZmlsbD0iI0MxODYxQSIgaGVpZ2h0PSIxMCIgd2lkdGg9IjIwIiB5PSIxNTAiIHg9IjE0MCIvPiYjeGE7ICAmI3hhOyAgJiN4YTsgIDxwYXRoIHN0cm9rZS13aWR0aD0iOCIgc3Ryb2tlPSJibGFjayIgZmlsbD0ibm9uZSIgZD0iTTE1MCAxODAgQzE1MCAxNjAgMTcwIDE2MCAxNzAgMTgwIi8+JiN4YTsgICYjeGE7ICAmI3hhOyAgPHJlY3Qgc3Ryb2tlLXdpZHRoPSI4IiBzdHJva2U9ImJsYWNrIiBmaWxsPSIjRkZBNTAwIiByeT0iMTAiIHJ4PSIxMCIgaGVpZ2h0PSIxNTAiIHdpZHRoPSIxMDAiIHk9IjE5MCIgeD0iMTIwIi8+JiN4YTsgICYjeGE7ICAmI3hhOyAgPHJlY3QgZmlsbD0iI0ZGQTUwMCIgcnk9IjEwIiByeD0iMTAiIGhlaWdodD0iODAiIHdpZHRoPSIzMCIgeT0iMjgwIiB4PSI5MCIvPiYjeGE7ICA8cmVjdCBmaWxsPSIjRkZBNTAwIiByeT0iMTAiIHJ4PSIxMCIgaGVpZ2h0PSI4MCIgd2lkdGg9IjMwIiB5PSIyODAiIHg9IjIyMCIvPiYjeGE7ICAmI3hhOyAgJiN4YTsgIDxyZWN0IGZpbGw9IiNGRkE1MDAiIHJ5PSI1IiByeD0iNSIgaGVpZ2h0PSI3MCIgd2lkdGg9IjUwIiB5PSIzMzAiIHg9IjExMCIvPiYjeGE7ICA8cmVjdCBmaWxsPSIjRkZBNTAwIiByeT0iNSIgcng9IjUiIGhlaWdodD0iNzAiIHdpZHRoPSI1MCIgeT0iMzMwIiB4PSIxNjAiLz4mI3hhOyAgJiN4YTsgICYjeGE7ICA8cmVjdCBmaWxsPSJ3aGl0ZSIgaGVpZ2h0PSI1MCIgd2lkdGg9IjYwIiB5PSIyMDAiIHg9IjEyNSIvPiYjeGE7ICA8cmVjdCBmaWxsPSJyZWQiIGhlaWdodD0iNTAiIHdpZHRoPSI2MCIgeT0iMjQ1IiB4PSIxNjAiLz4mI3hhOyAgJiN4YTsgICYjeGE7ICA8cmVjdCBmaWxsPSJ3aGl0ZSIgaGVpZ2h0PSI4MCIgd2lkdGg9IjIwIiB5PSIyNDAiIHg9IjEwMCIvPiYjeGE7ICA8cmVjdCBmaWxsPSJ3aGl0ZSIgaGVpZ2h0PSI4MCIgd2lkdGg9IjIwIiB5PSIyNDAiIHg9IjIzMCIvPiYjeGE7ICAmI3hhOyAgJiN4YTsgIDxjaXJjbGUgZmlsbD0iI0ZGRTRDNCIgcj0iMjAiIGN5PSIxMTAiIGN4PSIxNDAiLz4mI3hhOyAgPGVsbGlwc2UgZmlsbD0iI0ZGRTRDNCIgcnk9IjIwIiByeD0iMzAiIGN5PSIxMDUiIGN4PSIxNzAiLz4mI3hhOyAgPHJlY3Qgcnk9IjUiIHJ4PSI1IiBmaWxsPSIjRkZFNEM0IiBoZWlnaHQ9IjMwIiB3aWR0aD0iMzAiIHk9IjEyMCIgeD0iMTE1Ii8+JiN4YTsgIDxyZWN0IHJ5PSI1IiByeD0iNSIgZmlsbD0iI0ZGRTRDNCIgaGVpZ2h0PSIzMCIgd2lkdGg9IjMwIiB5PSIxMjAiIHg9IjE3MCIvPiYjeGE7ICA8cmVjdCByeT0iMyIgcng9IjMiIGZpbGw9IiNGRkU0QzQiIGhlaWdodD0iMjAiIHdpZHRoPSIyMCIgeT0iMTQwIiB4PSIxNDAiLz4mI3hhOyAgPHJlY3Qgcnk9IjIiIHJ4PSIyIiBmaWxsPSIjRkZFNEM0IiBoZWlnaHQ9IjIwIiB3aWR0aD0iMjUiIHk9IjE2MCIgeD0iMTM1Ii8+JiN4YTsgICYjeGE7ICAmI3hhOyAgPGNpcmNsZSBzdHJva2Utd2lkdGg9IjgiIHN0cm9rZT0iYmxhY2siIGZpbGw9Im5vbmUiIHI9IjgwIiBjeT0iMTAwIiBjeD0iMTUwIi8+JiN4YTsgIDxyZWN0IHN0cm9rZS13aWR0aD0iOCIgc3Ryb2tlPSJibGFjayIgZmlsbD0ibm9uZSIgcnk9IjEwIiByeD0iMTAiIGhlaWdodD0iMTUwIiB3aWR0aD0iMTAwIiB5PSIxOTAiIHg9IjEyMCIvPiYjeGE7ICA8cmVjdCBzdHJva2Utd2lkdGg9IjgiIHN0cm9rZT0iYmxhY2siIGZpbGw9Im5vbmUiIHJ5PSIxMCIgcng9IjEwIiBoZWlnaHQ9IjgwIiB3aWR0aD0iMzAiIHk9IjI4MCIgeD0iOTAiLz4mI3hhOyAgPHJlY3Qgc3Ryb2tlLXdpZHRoPSI4IiBzdHJva2U9ImJsYWNrIiBmaWxsPSJub25lIiByeT0iMTAiIHJ4PSIxMCIgaGVpZ2h0PSI4MCIgd2lkdGg9IjMwIiB5PSIyODAiIHg9IjIyMCIvPiYjeGE7ICA8cmVjdCBzdHJva2Utd2lkdGg9IjgiIHN0cm9rZT0iYmxhY2siIGZpbGw9Im5vbmUiIHJ5PSI1IiByeD0iNSIgaGVpZ2h0PSI3MCIgd2lkdGg9IjUwIiB5PSIzMzAiIHg9IjExMCIvPiYjeGE7ICA8cmVjdCBzdHJva2Utd2lkdGg9IjgiIHN0cm9rZT0iYmxhY2siIGZpbGw9Im5vbmUiIHJ5PSI1IiByeD0iNSIgaGVpZ2h0PSI3MCIgd2lkdGg9IjUwIiB5PSIzMzAiIHg9IjE2MCIvPiYjeGE7ICA8cmVjdCBzdHJva2Utd2lkdGg9IjgiIHN0cm9rZT0iYmxhY2siIGZpbGw9Im5vbmUiIGhlaWdodD0iNTAiIHdpZHRoPSI2MCIgeT0iMjAwIiB4PSIxMjUiLz4mI3hhOyAgPHJlY3Qgc3Ryb2tlLXdpZHRoPSI4IiBzdHJva2U9ImJsYWNrIiBmaWxsPSJub25lIiBoZWlnaHQ9IjUwIiB3aWR0aD0iNjAiIHk9IjI0NSIgeD0iMTYwIi8+JiN4YTsgIDxyZWN0IHN0cm9rZS13aWR0aD0iOCIgc3Ryb2tlPSJibGFjayIgZmlsbD0ibm9uZSIgaGVpZ2h0PSI4MCIgd2lkdGg9IjIwIiB5PSIyNDAiIHg9IjEwMCIvPiYjeGE7ICA8cmVjdCBzdHJva2Utd2lkdGg9IjgiIHN0cm9rZT0iYmxhY2siIGZpbGw9Im5vbmUiIGhlaWdodD0iODAiIHdpZHRoPSIyMCIgeT0iMjQwIiB4PSIyMzAiLz4mI3hhOyAgPGNpcmNsZSBzdHJva2Utd2lkdGg9IjgiIHN0cm9rZT0iYmxhY2siIGZpbGw9Im5vbmUiIHI9IjIwIiBjeT0iMTEwIiBjeD0iMTQwIi8+JiN4YTsgIDxlbGxpcHNlIHN0cm9rZS13aWR0aD0iOCIgc3Ryb2tlPSJibGFjayIgZmlsbD0ibm9uZSIgcnk9IjIwIiByeD0iMzAiIGN5PSIxMDUiIGN4PSIxNzAiLz4mI3hhOyAgPHJlY3Qgc3Ryb2tlLXdpZHRoPSI4IiBzdHJva2U9ImJsYWNrIiBmaWxsPSJub25lIiBoZWlnaHQ9IjMwIiB3aWR0aD0iMzAiIHk9IjEyMCIgeD0iMTE1Ii8+JiN4YTsgIDxyZWN0IHN0cm9rZS13aWR0aD0iOCIgc3Ryb2tlPSJibGFjayIgZmlsbD0ibm9uZSIgaGVpZ2h0PSIzMCIgd2lkdGg9IjMwIiB5PSIxMjAiIHg9IjE3MCIvPiYjeGE7ICA8cmVjdCBzdHJva2Utd2lkdGg9IjgiIHN0cm9rZT0iYmxhY2siIGZpbGw9Im5vbmUiIGhlaWdodD0iMjAiIHdpZHRoPSIyMCIgeT0iMTQwIiB4PSIxNDAiLz4mI3hhOyAgPHJlY3Qgc3Ryb2tlLXdpZHRoPSI4IiBzdHJva2U9ImJsYWNrIiBmaWxsPSJub25lIiBoZWlnaHQ9IjIwIiB3aWR0aD0iMjUiIHk9IjE2MCIgeD0iMTM1Ii8+JiN4YTs8L3N2Zz4=;" vertex="1" parent="1">
          <mxGeometry x="108.61000000000001" y="724" width="54.78" height="113" as="geometry" />
        </mxCell>
        <mxCell id="YNclxRvdEfs6pl0bdQtO-19" value="" style="shape=image;verticalLabelPosition=bottom;labelBackgroundColor=default;verticalAlign=top;aspect=fixed;imageAspect=0;editableCssRules=.*;image=data:image/svg+xml,PHN2ZyB4bWxucz0iaHR0cDovL3d3dy53My5vcmcvMjAwMC9zdmciIGhlaWdodD0iMzAwIiB3aWR0aD0iMTUwIiB2aWV3Qm94PSIyNSAxMjUgMTUwIDMwMCI+JiN4YTsgICYjeGE7ICA8Y2lyY2xlIHN0cm9rZS13aWR0aD0iNSIgc3Ryb2tlPSJibGFjayIgZmlsbD0iI0ZGQjQ2NSIgcj0iNzAiIGN5PSIyMDAiIGN4PSIxMDAiLz4mI3hhOyAgJiN4YTsgICYjeGE7ICA8cmVjdCBzdHJva2Utd2lkdGg9IjUiIHN0cm9rZT0iYmxhY2siIGZpbGw9IiNGRkEwNDAiIGhlaWdodD0iMTAwIiB3aWR0aD0iNzAiIHk9IjI3MCIgeD0iNjUiLz4mI3hhOyAgJiN4YTsgICYjeGE7ICA8bGluZSBzdHJva2U9ImJsYWNrIiBzdHJva2Utd2lkdGg9IjEwIiB5Mj0iMjgwIiB4Mj0iNDUiIHkxPSIyMzAiIHgxPSI3MCIvPiYjeGE7ICA8bGluZSBzdHJva2U9ImJsYWNrIiBzdHJva2Utd2lkdGg9IjEwIiB5Mj0iMjgwIiB4Mj0iMTY1IiB5MT0iMjQwIiB4MT0iMTM1Ii8+JiN4YTsgICYjeGE7ICAmI3hhOyAgPGxpbmUgc3Ryb2tlPSJibGFjayIgc3Ryb2tlLXdpZHRoPSIxMCIgeTI9IjQyMCIgeDI9IjUwIiB5MT0iMzcwIiB4MT0iODAiLz4mI3hhOyAgPGxpbmUgc3Ryb2tlPSJibGFjayIgc3Ryb2tlLXdpZHRoPSIxMCIgeTI9IjQyMCIgeDI9IjE1MCIgeTE9IjM3MCIgeDE9IjEyMCIvPiYjeGE7ICAmI3hhOyAgJiN4YTsgIDxjaXJjbGUgb3BhY2l0eT0iMC44IiBmaWxsPSIjRDJCNDdDIiByPSIyMCIgY3k9IjE3MCIgY3g9Ijk1Ii8+JiN4YTsgIDxlbGxpcHNlIG9wYWNpdHk9IjAuOCIgZmlsbD0iI0QyQjQ3QyIgcnk9IjMwIiByeD0iMjAiIGN5PSIxODUiIGN4PSI5NSIvPiYjeGE7ICA8ZWxsaXBzZSBvcGFjaXR5PSIwLjgiIGZpbGw9IiNEMkI0N0MiIHJ5PSIzMCIgcng9IjE1IiBjeT0iMTYwIiBjeD0iMTEwIi8+JiN4YTsgICYjeGE7ICAmI3hhOyAgPGNpcmNsZSBmaWxsPSIjRkZBNTAwIiByPSIyNSIgY3k9IjIxMCIgY3g9Ijk1Ii8+JiN4YTsgIDxlbGxpcHNlIGZpbGw9ImJsYWNrIiByeT0iMTAiIHJ4PSI4IiBjeT0iMjQwIiBjeD0iODAiLz4mI3hhOyAgJiN4YTsgICYjeGE7ICA8Y2lyY2xlIGZpbGw9ImJsYWNrIiByPSIzIiBjeT0iMjM1IiBjeD0iOTUiLz4mI3hhOyAgJiN4YTsgICYjeGE7ICA8Y2lyY2xlIGZpbGw9ImJsYWNrIiByPSI0IiBjeT0iMTkwIiBjeD0iODUiLz4mI3hhOyAgPGNpcmNsZSBmaWxsPSJibGFjayIgcj0iNCIgY3k9IjE5MCIgY3g9IjEwMCIvPiYjeGE7ICAmI3hhOyAgJiN4YTsgIDxsaW5lIHN0cm9rZS13aWR0aD0iNCIgc3Ryb2tlPSJibGFjayIgeTI9IjIyNSIgeDI9IjkyIiB5MT0iMjE1IiB4MT0iODgiLz4mI3hhOyAgJiN4YTsgICYjeGE7ICA8cmVjdCBzdHJva2Utd2lkdGg9IjgiIHN0cm9rZT0icmVkIiBmaWxsPSJub25lIiBoZWlnaHQ9IjYwIiB3aWR0aD0iNjUiIHk9IjI3NSIgeD0iNzAiLz4mI3hhOyAgPHJlY3Qgc3Ryb2tlLXdpZHRoPSI4IiBzdHJva2U9IndoaXRlIiBmaWxsPSJub25lIiBoZWlnaHQ9IjIwIiB3aWR0aD0iNjUiIHk9IjMzMCIgeD0iNzEiLz4mI3hhOyAgPHJlY3Qgc3Ryb2tlLXdpZHRoPSI4IiBzdHJva2U9InJlZCIgZmlsbD0ibm9uZSIgaGVpZ2h0PSIyMCIgd2lkdGg9IjY1IiB5PSIzNTUiIHg9IjcyIi8+JiN4YTsgIDxyZWN0IHN0cm9rZS13aWR0aD0iOCIgc3Ryb2tlPSJ3aGl0ZSIgZmlsbD0ibm9uZSIgaGVpZ2h0PSIyMCIgd2lkdGg9IjY1IiB5PSIzODAiIHg9IjczIi8+JiN4YTs8L3N2Zz4=;" vertex="1" parent="1">
          <mxGeometry x="228.75" y="724" width="56.5" height="113" as="geometry" />
        </mxCell>
        <mxCell id="YNclxRvdEfs6pl0bdQtO-20" value="" style="shape=image;verticalLabelPosition=bottom;labelBackgroundColor=default;verticalAlign=top;aspect=fixed;imageAspect=0;editableCssRules=.*;image=data:image/svg+xml,PHN2ZyB4bWxucz0iaHR0cDovL3d3dy53My5vcmcvMjAwMC9zdmciIGhlaWdodD0iNDA4IiB3aWR0aD0iMTY5IiB2aWV3Qm94PSI4NSA3MSAxNjkgNDA4Ij4mI3hhOyAgJiN4YTsgIDxjaXJjbGUgZmlsbD0iI0YyRDcwRSIgcj0iNTAiIGN5PSIxMjUiIGN4PSIxNTAiLz4mI3hhOyAgJiN4YTsgICYjeGE7ICA8cmVjdCBmaWxsPSIjRkZBMDAwIiByeT0iMjUiIHJ4PSIyNSIgaGVpZ2h0PSIxODUiIHdpZHRoPSIxMjAiIHk9IjE4MCIgeD0iOTAiLz4mI3hhOyAgJiN4YTsgICYjeGE7ICA8Y2lyY2xlIGZpbGw9IiNGRkMxMDciIHI9IjQ1IiBjeT0iMjIwIiBjeD0iMTUwIi8+JiN4YTsgICYjeGE7ICAmI3hhOyAgPGVsbGlwc2UgZmlsbD0iIzAwQkZBNSIgcnk9IjkiIHJ4PSI3IiBjeT0iMjM1IiBjeD0iMTQwIi8+JiN4YTsgIDxlbGxpcHNlIGZpbGw9IiMwMEJGQTUiIHJ5PSI5IiByeD0iNyIgY3k9IjIzNSIgY3g9IjE2MCIvPiYjeGE7ICAmI3hhOyAgJiN4YTsgIDxwYXRoIHN0cm9rZS13aWR0aD0iNiIgc3Ryb2tlPSJibGFjayIgZmlsbD0ibm9uZSIgZD0iTTE0MCwyNDkgQzE0NywyNjMgMTU4LDI2MCAxNTAsMjQ3Ii8+JiN4YTsgICYjeGE7ICAmI3hhOyAgPGVsbGlwc2Ugb3BhY2l0eT0iMC42IiBmaWxsPSIjRkZBMDAwIiByeT0iNCIgcng9IjMiIGN5PSIyNTQiIGN4PSIxMzIiLz4mI3hhOyAgPGVsbGlwc2Ugb3BhY2l0eT0iMC42IiBmaWxsPSIjRkZBMDAwIiByeT0iNCIgcng9IjMiIGN5PSIyNTMiIGN4PSIxNTgiLz4mI3hhOyAgJiN4YTsgICYjeGE7ICA8ZWxsaXBzZSBmaWxsPSIjRDRCOTdEIiByeT0iMzIiIHJ4PSIyOCIgY3k9IjE0MCIgY3g9IjEyMCIvPiYjeGE7ICAmI3hhOyAgJiN4YTsgIDxyZWN0IGZpbGw9IiNGRjAwMDAiIGhlaWdodD0iMTI1IiB3aWR0aD0iMTEwIiB5PSIyODAiIHg9Ijk1Ii8+JiN4YTsgICYjeGE7ICA8cmVjdCBmaWxsPSIjRkYwMDAwIiBoZWlnaHQ9IjEyNSIgd2lkdGg9IjYiIHk9IjI4MCIgeD0iMTAwIi8+JiN4YTsgIDxyZWN0IGZpbGw9IiNGRjAwMDAiIGhlaWdodD0iMTI1IiB3aWR0aD0iNiIgeT0iMjgwIiB4PSIxMjAiLz4mI3hhOyAgPHJlY3QgZmlsbD0iI0ZGMDAwMCIgaGVpZ2h0PSIxMjUiIHdpZHRoPSI2IiB5PSIyODAiIHg9IjE0MCIvPiYjeGE7ICAmI3hhOyAgJiN4YTsgIDxyZWN0IGZpbGw9IiNGRkZGRkYiIGhlaWdodD0iMzAiIHdpZHRoPSI0IiB5PSIyODAiIHg9IjEwNiIvPiYjeGE7ICA8cmVjdCBmaWxsPSIjRkZGRkZGIiBoZWlnaHQ9IjMwIiB3aWR0aD0iNCIgeT0iMzEwIiB4PSIxMjYiLz4mI3hhOyAgPHJlY3QgZmlsbD0iI0ZGRkZGRiIgaGVpZ2h0PSIzMCIgd2lkdGg9IjQiIHk9IjM0MCIgeD0iMTQ2Ii8+JiN4YTsgICYjeGE7ICAmI3hhOyAgPHJlY3QgZmlsbD0iI0ZGQTc4QiIgcnk9IjUiIHJ4PSI1IiBoZWlnaHQ9IjkwIiB3aWR0aD0iMzAiIHk9IjM4NSIgeD0iOTAiLz4mI3hhOyAgJiN4YTsgIDxyZWN0IGZpbGw9IiNGRkE3OEIiIGhlaWdodD0iMjUiIHdpZHRoPSIzMiIgeT0iNDUwIiB4PSI4OSIvPiYjeGE7ICAmI3hhOyAgJiN4YTsgIDxwYXRoIGZpbGw9Im5vbmUiIHN0cm9rZS13aWR0aD0iOCIgc3Ryb2tlPSJibGFjayIgZD0iTTE0OSwxMzVRMTQ5LDgwIDI1MCw4MCBRMjUwLDM1MCAxNDksMzUwIi8+JiN4YTsgICYjeGE7ICA8Y2lyY2xlIGZpbGw9Im5vbmUiIHN0cm9rZS13aWR0aD0iOCIgc3Ryb2tlPSJibGFjayIgcj0iNTAiIGN5PSIxMjUiIGN4PSIxNTAiLz4mI3hhOyAgJiN4YTsgIDxjaXJjbGUgZmlsbD0ibm9uZSIgc3Ryb2tlLXdpZHRoPSI4IiBzdHJva2U9ImJsYWNrIiByPSI0NSIgY3k9IjIyMCIgY3g9IjE1MCIvPiYjeGE7ICAmI3hhOyAgPHJlY3QgZmlsbD0ibm9uZSIgc3Ryb2tlLXdpZHRoPSI4IiBzdHJva2U9ImJsYWNrIiBoZWlnaHQ9IjEyNSIgd2lkdGg9IjExMCIgeT0iMjgwIiB4PSI5NSIvPiYjeGE7ICAmI3hhOyAgPHJlY3QgZmlsbD0ibm9uZSIgc3Ryb2tlLXdpZHRoPSI4IiBzdHJva2U9ImJsYWNrIiByeT0iNSIgcng9IjUiIGhlaWdodD0iOTAiIHdpZHRoPSIzMiIgeT0iMzg1IiB4PSI4OSIvPiYjeGE7PC9zdmc+;" vertex="1" parent="1">
          <mxGeometry x="355.14" y="724" width="46.84" height="113" as="geometry" />
        </mxCell>
        <mxCell id="YNclxRvdEfs6pl0bdQtO-21" value="" style="shape=image;verticalLabelPosition=bottom;labelBackgroundColor=default;verticalAlign=top;aspect=fixed;imageAspect=0;editableCssRules=.*;image=data:image/svg+xml,PHN2ZyB4bWxucz0iaHR0cDovL3d3dy53My5vcmcvMjAwMC9zdmciIGhlaWdodD0iMzIwIiB3aWR0aD0iMTEwIiB2aWV3Qm94PSI0Ny41IDEyLjUgMTEwIDMyMCI+JiN4YTsgICYjeGE7ICA8Y2lyY2xlIHN0cm9rZS13aWR0aD0iNSIgc3Ryb2tlPSIjMDAwMDAwIiBmaWxsPSIjRUNDRENDIiByPSI0MCIgY3k9Ijc1IiBjeD0iMTAwIi8+JiN4YTsgICYjeGE7ICAmI3hhOyAgPGVsbGlwc2UgZmlsbD0iI0UwODAwMCIgcnk9IjQwIiByeD0iNDAiIGN5PSIxMTAiIGN4PSIxMDAiLz4mI3hhOyAgJiN4YTsgICYjeGE7ICA8ZWxsaXBzZSBmaWxsPSIjRjBFMEMwIiByeT0iMjUiIHJ4PSIyMCIgY3k9IjU1IiBjeD0iOTAiLz4mI3hhOyAgPGVsbGlwc2UgZmlsbD0iI0YwRTBDMCIgcnk9IjIwIiByeD0iMTUiIGN5PSI0NSIgY3g9Ijk1Ii8+JiN4YTsgIDxlbGxpcHNlIGZpbGw9IiNGMEUwQzAiIHJ5PSIyNSIgcng9IjE1IiBjeT0iNDAiIGN4PSIxMDAiLz4mI3hhOyAgPGVsbGlwc2UgZmlsbD0iI0YwRTBDMCIgcnk9IjIwIiByeD0iMTUiIGN5PSIzNSIgY3g9IjEwNSIvPiYjeGE7ICA8ZWxsaXBzZSBmaWxsPSIjRjBFMEMwIiByeT0iMTUiIHJ4PSIxNSIgY3k9IjMwIiBjeD0iMTEwIi8+JiN4YTsgICYjeGE7ICAmI3hhOyAgPHJlY3Qgc3Ryb2tlLXdpZHRoPSI1IiBzdHJva2U9IiMwMDAwMDAiIGZpbGw9Im5vbmUiIHJ5PSIyMCIgcng9IjIwIiBoZWlnaHQ9IjE1MCIgd2lkdGg9IjEwMCIgeT0iMTU1IiB4PSI1MCIvPiYjeGE7ICAmI3hhOyAgJiN4YTsgIDxsaW5lIHN0cm9rZS13aWR0aD0iNSIgc3Ryb2tlPSJibGFjayIgeTI9IjIyMCIgeDI9IjcwIiB5MT0iMTgwIiB4MT0iODAiLz4mI3hhOyAgPGxpbmUgc3Ryb2tlLXdpZHRoPSI1IiBzdHJva2U9ImJsYWNrIiB5Mj0iMjEwIiB4Mj0iMTM1IiB5MT0iMTgwIiB4MT0iMTIwIi8+JiN4YTsgICYjeGE7ICAmI3hhOyAgPHJlY3Qgc3Ryb2tlLXdpZHRoPSI1IiBzdHJva2U9IiMwMDAwMDAiIGZpbGw9Im5vbmUiIGhlaWdodD0iNjAiIHdpZHRoPSIzMCIgeT0iMjcwIiB4PSI4NSIvPiYjeGE7ICA8cmVjdCBzdHJva2Utd2lkdGg9IjUiIHN0cm9rZT0iIzAwMDAwMCIgZmlsbD0ibm9uZSIgaGVpZ2h0PSI2MCIgd2lkdGg9IjMwIiB5PSIyNzAiIHg9IjEyNSIvPiYjeGE7ICAmI3hhOyAgJiN4YTsgIDxyZWN0IGZpbGw9IiNDQzAwMjkiIGhlaWdodD0iNzAiIHdpZHRoPSIzMCIgeT0iMTU1IiB4PSI2NSIvPiYjeGE7ICAmI3hhOyAgJiN4YTsgIDxyZWN0IGZpbGw9IiNGMkYyRjIiIGhlaWdodD0iNzAiIHdpZHRoPSIzMCIgeT0iMTU1IiB4PSI5NSIvPiYjeGE7ICAmI3hhOyAgJiN4YTsgIDxyZWN0IGZpbGw9IiNDQzAwMjkiIGhlaWdodD0iMjAiIHdpZHRoPSI3MCIgeT0iMjMwIiB4PSI2NSIvPiYjeGE7ICAmI3hhOyAgJiN4YTsgIDxlbGxpcHNlIGZpbGw9IiNFMDgwMDAiIHJ5PSIxNSIgcng9IjE1IiBjeT0iMjkwIiBjeD0iODgiLz4mI3hhOyAgPGVsbGlwc2UgZmlsbD0iI0UwODAwMCIgcnk9IjE1IiByeD0iMTUiIGN5PSIyOTAiIGN4PSIxMjIiLz4mI3hhOyAgJiN4YTsgICYjeGE7ICA8Y2lyY2xlIGZpbGw9IiMwMDdCQkQiIHI9IjYiIGN5PSIxMDIiIGN4PSI5NSIvPiYjeGE7ICA8Y2lyY2xlIGZpbGw9IiMwMDdCQkQiIHI9IjYiIGN5PSIxMDIiIGN4PSIxMDciLz4mI3hhOyAgJiN4YTsgICYjeGE7ICA8cGF0aCBzdHJva2Utd2lkdGg9IjUiIHN0cm9rZT0iYmxhY2siIGZpbGw9Im5vbmUiIGQ9Ik05NiwxMDkgQzk2LDEyMyAxMDcsMTI5IDEyMCwxMTciLz4mI3hhOyAgJiN4YTsgICYjeGE7ICA8ZWxsaXBzZSBzdHJva2Utd2lkdGg9IjUiIHN0cm9rZT0iIzAwMDAwMCIgZmlsbD0ibm9uZSIgcj0iNDAiIGN5PSI3NSIgY3g9IjEwMCIvPiYjeGE7ICAmI3hhOyAgJiN4YTsgIDxlbGxpcHNlIHN0cm9rZS13aWR0aD0iNSIgc3Ryb2tlPSIjMDAwMDAwIiBmaWxsPSJub25lIiByeT0iNDAiIHJ4PSI0MCIgY3k9IjExMCIgY3g9IjEwMCIvPiYjeGE7ICAmI3hhOyAgJiN4YTsgIDxlbGxpcHNlIHN0cm9rZS13aWR0aD0iNSIgc3Ryb2tlPSIjMDAwMDAwIiBmaWxsPSJub25lIiByeT0iMjUiIHJ4PSIyMCIgY3k9IjU1IiBjeD0iOTAiLz4mI3hhOyAgPGVsbGlwc2Ugc3Ryb2tlLXdpZHRoPSI1IiBzdHJva2U9IiMwMDAwMDAiIGZpbGw9Im5vbmUiIHJ5PSIyMCIgcng9IjE1IiBjeT0iNDUiIGN4PSI5NSIvPiYjeGE7ICA8ZWxsaXBzZSBzdHJva2Utd2lkdGg9IjUiIHN0cm9rZT0iIzAwMDAwMCIgZmlsbD0ibm9uZSIgcnk9IjI1IiByeD0iMTUiIGN5PSI0MCIgY3g9IjEwMCIvPiYjeGE7ICA8ZWxsaXBzZSBzdHJva2Utd2lkdGg9IjUiIHN0cm9rZT0iIzAwMDAwMCIgZmlsbD0ibm9uZSIgcnk9IjIwIiByeD0iMTUiIGN5PSIzNSIgY3g9IjEwNSIvPiYjeGE7ICA8ZWxsaXBzZSBzdHJva2Utd2lkdGg9IjUiIHN0cm9rZT0iIzAwMDAwMCIgZmlsbD0ibm9uZSIgcnk9IjE1IiByeD0iMTUiIGN5PSIzMCIgY3g9IjExMCIvPiYjeGE7ICAmI3hhOyAgJiN4YTsgIDxyZWN0IHN0cm9rZS13aWR0aD0iNSIgc3Ryb2tlPSIjMDAwMDAwIiBmaWxsPSJub25lIiByeT0iMjAiIHJ4PSIyMCIgaGVpZ2h0PSIxNTAiIHdpZHRoPSIxMDAiIHk9IjE1NSIgeD0iNTAiLz4mI3hhOyAgJiN4YTsgICYjeGE7ICA8bGluZSBzdHJva2Utd2lkdGg9IjUiIHN0cm9rZT0iIzAwMDAwMCIgeTI9IjIyMCIgeDI9IjcwIiB5MT0iMTgwIiB4MT0iODAiLz4mI3hhOyAgPGxpbmUgc3Ryb2tlLXdpZHRoPSI1IiBzdHJva2U9IiMwMDAwMDAiIHkyPSIyMTAiIHgyPSIxMzUiIHkxPSIxODAiIHgxPSIxMjAiLz4mI3hhOyAgJiN4YTsgICYjeGE7ICA8cmVjdCBzdHJva2Utd2lkdGg9IjUiIHN0cm9rZT0iIzAwMDAwMCIgZmlsbD0ibm9uZSIgaGVpZ2h0PSI2MCIgd2lkdGg9IjMwIiB5PSIyNzAiIHg9Ijg1Ii8+JiN4YTsgIDxyZWN0IHN0cm9rZS13aWR0aD0iNSIgc3Ryb2tlPSIjMDAwMDAwIiBmaWxsPSJub25lIiBoZWlnaHQ9IjYwIiB3aWR0aD0iMzAiIHk9IjI3MCIgeD0iMTI1Ii8+JiN4YTs8L3N2Zz4=;" vertex="1" parent="1">
          <mxGeometry x="479.38" y="724" width="38.87" height="113" as="geometry" />
        </mxCell>
        <mxCell id="YNclxRvdEfs6pl0bdQtO-22" value="" style="shape=image;verticalLabelPosition=bottom;labelBackgroundColor=default;verticalAlign=top;aspect=fixed;imageAspect=0;editableCssRules=.*;image=data:image/svg+xml,PHN2ZyB4bWxucz0iaHR0cDovL3d3dy53My5vcmcvMjAwMC9zdmciIGhlaWdodD0iMjgzIiB3aWR0aD0iMTI4IiB2aWV3Qm94PSIzNiAxMSAxMjggMjgzIj4mI3hhOyAgJiN4YTsgIDxjaXJjbGUgb3BhY2l0eT0iMC45IiBmaWxsPSIjRjhFMUMyIiByPSI1MCIgY3k9Ijc1IiBjeD0iMTAwIi8+JiN4YTsgICYjeGE7ICAmI3hhOyAgPGVsbGlwc2UgZmlsbD0iI0YwRTI3RSIgcnk9IjM1IiByeD0iMzAiIGN5PSI1MCIgY3g9IjEwMCIvPiYjeGE7ICAmI3hhOyAgJiN4YTsgIDxjaXJjbGUgZmlsbD0iI0UwN0YyMiIgcj0iNDAiIGN5PSIxMDUiIGN4PSIxMDAiLz4mI3hhOyAgJiN4YTsgICYjeGE7ICA8Y2lyY2xlIGZpbGw9IiMwMDIwNDAiIHI9IjQiIGN5PSI5OSIgY3g9Ijk2Ii8+JiN4YTsgIDxjaXJjbGUgZmlsbD0iIzAwMjA0MCIgcj0iNCIgY3k9Ijk5IiBjeD0iMTA0Ii8+JiN4YTsgICYjeGE7ICAmI3hhOyAgPHBhdGggc3Ryb2tlLXdpZHRoPSI0IiBzdHJva2U9IiMwMDIwNDAiIGZpbGw9Im5vbmUiIGQ9Ik04NSwxMTIgQzg1LDEzNSAxMTUsMTU1IDE0NSwxMTIiLz4mI3hhOyAgJiN4YTsgICYjeGE7ICA8cmVjdCBmaWxsPSIjRjk4MDJFIiByeT0iMjAiIHJ4PSIyMCIgaGVpZ2h0PSIxNDUiIHdpZHRoPSIxMjAiIHk9IjE0NSIgeD0iNDAiLz4mI3hhOyAgJiN4YTsgICYjeGE7ICA8bGluZSBzdHJva2Utd2lkdGg9IjYiIHN0cm9rZT0iIzAwMjA0MCIgeTI9IjE4NSIgeDI9IjYwIiB5MT0iMTYwIiB4MT0iNzUiLz4mI3hhOyAgPGxpbmUgc3Ryb2tlLXdpZHRoPSI2IiBzdHJva2U9IiMwMDIwNDAiIHkyPSIxODUiIHgyPSIxNDUiIHkxPSIxNjAiIHgxPSIxMjUiLz4mI3hhOyAgJiN4YTsgICYjeGE7ICA8bGluZSBzdHJva2Utd2lkdGg9IjYiIHN0cm9rZT0iIzAwMjA0MCIgeTI9IjI2MCIgeDI9Ijg1IiB5MT0iMjI1IiB4MT0iODUiLz4mI3hhOyAgPGxpbmUgc3Ryb2tlLXdpZHRoPSI2IiBzdHJva2U9IiMwMDIwNDAiIHkyPSIyNjAiIHgyPSIxMTAiIHkxPSIyMjUiIHgxPSIxMTAiLz4mI3hhOyAgJiN4YTsgICYjeGE7ICAmI3hhOyAgPHJlY3QgZmlsbD0iI0YyRjJGMiIgaGVpZ2h0PSI2MCIgd2lkdGg9IjEwIiB5PSIxNDUiIHg9IjUwIi8+JiN4YTsgIDxyZWN0IGZpbGw9IiNGMkYyRjIiIGhlaWdodD0iNjAiIHdpZHRoPSIxMCIgeT0iMTQ1IiB4PSI4MCIvPiYjeGE7ICAmI3hhOyAgJiN4YTsgIDxyZWN0IGZpbGw9IiNDQzI5M0QiIGhlaWdodD0iNjAiIHdpZHRoPSIxMCIgeT0iMTQ1IiB4PSI2MCIvPiYjeGE7ICA8cmVjdCBmaWxsPSIjQ0MyOTNEIiBoZWlnaHQ9IjYwIiB3aWR0aD0iMTAiIHk9IjE0NSIgeD0iOTUiLz4mI3hhOyAgPHJlY3QgZmlsbD0iI0NDMjkzRCIgaGVpZ2h0PSI2MCIgd2lkdGg9IjEwIiB5PSIxNDUiIHg9IjEyNSIvPiYjeGE7ICAmI3hhOyAgJiN4YTsgIDxjaXJjbGUgc3Ryb2tlLXdpZHRoPSI4IiBzdHJva2U9IiMxNDE0MTgiIGZpbGw9Im5vbmUiIHI9IjUwIiBjeT0iNzUiIGN4PSIxMDAiLz4mI3hhOyAgPHJlY3Qgc3Ryb2tlLXdpZHRoPSI4IiBzdHJva2U9IiMxNDE0MTgiIGZpbGw9Im5vbmUiIHJ5PSIyMCIgcng9IjIwIiBoZWlnaHQ9IjE0NSIgd2lkdGg9IjEyMCIgeT0iMTQ1IiB4PSI0MCIvPiYjeGE7PC9zdmc+;" vertex="1" parent="1">
          <mxGeometry x="593.86" y="724" width="51.13" height="113" as="geometry" />
        </mxCell>
        <mxCell id="YNclxRvdEfs6pl0bdQtO-24" value="&lt;b style=&quot;font-family: Helvetica; font-size: 15px;&quot;&gt;A happy c&lt;/b&gt;&lt;font style=&quot;font-size: 15px;&quot; face=&quot;Helvetica&quot;&gt;&lt;b&gt;artoon person with blonde hair, orange skin, wearing red-and-white striped shirt, in thick black outlines.&lt;/b&gt;&lt;/font&gt;" style="text;html=1;align=center;verticalAlign=middle;whiteSpace=wrap;rounded=1;fillColor=#E6E6E6;fontColor=#333333;strokeColor=none;arcSize=24;strokeWidth=2;fontFamily=Times New Roman;spacingLeft=10;" vertex="1" parent="1">
          <mxGeometry x="81" y="680" width="830" height="30" as="geometry" />
        </mxCell>
        <mxCell id="YNclxRvdEfs6pl0bdQtO-25" value="" style="shape=image;verticalLabelPosition=bottom;labelBackgroundColor=default;verticalAlign=top;aspect=fixed;imageAspect=0;editableCssRules=.*;image=data:image/svg+xml,PHN2ZyB4bWxucz0iaHR0cDovL3d3dy53My5vcmcvMjAwMC9zdmciIGhlaWdodD0iMjk3IiB3aWR0aD0iMjg2IiB2aWV3Qm94PSI3IC0zIDI4NiAyOTciPiYjeGE7ICAmI3hhOyAgPHJlY3Qgb3BhY2l0eT0iMC41IiBmaWxsPSIjRjBFOURCIiByeT0iMTAiIHJ4PSIxMCIgaGVpZ2h0PSIyMjUiIHdpZHRoPSIyODAiIHk9IjAiIHg9IjEwIi8+JiN4YTsgICYjeGE7ICAmI3hhOyAgPGNpcmNsZSBmaWxsPSIjRTBDNjVDIiByPSI0MyIgY3k9Ijk0IiBjeD0iMTQ3Ii8+JiN4YTsgICYjeGE7ICAmI3hhOyAgPGVsbGlwc2UgZmlsbD0iI0YyRTA2RSIgcnk9IjI0IiByeD0iMjQiIGN5PSI2NSIgY3g9IjE0NSIvPiYjeGE7ICA8ZWxsaXBzZSBmaWxsPSIjRjJFMDZFIiByeT0iMjQiIHJ4PSIyMSIgY3k9IjU1IiBjeD0iMTU5Ii8+JiN4YTsgIDxlbGxpcHNlIGZpbGw9IiNGMkUwNkUiIHJ5PSIyMyIgcng9IjIwIiBjeT0iNTAiIGN4PSIxNjUiLz4mI3hhOyAgPGVsbGlwc2UgZmlsbD0iI0YyRTA2RSIgcnk9IjI1IiByeD0iMTkiIGN5PSI2MCIgY3g9IjE3MSIvPiYjeGE7ICA8ZWxsaXBzZSBmaWxsPSIjRjJFMDZFIiByeT0iMjMiIHJ4PSIxNyIgY3k9Ijc1IiBjeD0iMTc1Ii8+JiN4YTsgIDxlbGxpcHNlIGZpbGw9IiNGMkUwNkUiIHJ5PSIyNCIgcng9IjE3IiBjeT0iODUiIGN4PSIxNzkiLz4mI3hhOyAgPGVsbGlwc2UgZmlsbD0iI0YyRTA2RSIgcnk9IjI1IiByeD0iMTUiIGN5PSI5MCIgY3g9IjE2NCIvPiYjeGE7ICAmI3hhOyAgJiN4YTsgIDxjaXJjbGUgZmlsbD0iI0U5N2IyRSIgcj0iMzQiIGN5PSIxMjUiIGN4PSIxNDciLz4mI3hhOyAgJiN4YTsgICYjeGE7ICA8Y2lyY2xlIGZpbGw9IiMwMDE2MjkiIHI9IjQiIGN5PSIxMTEiIGN4PSIxMzQiLz4mI3hhOyAgPGNpcmNsZSBmaWxsPSIjMDAxNjI5IiByPSI0IiBjeT0iMTE0IiBjeD0iMTYyIi8+JiN4YTsgICYjeGE7ICAmI3hhOyAgPHBhdGggc3Ryb2tlLXdpZHRoPSI0IiBzdHJva2U9IiMwMDE1MjAiIGZpbGw9Im5vbmUiIGQ9Ik0xNDIsMTI1QzE0MiwxMzUgMTU1LDEzNSAxNjAsMTI1Ii8+JiN4YTsgICYjeGE7ICAmI3hhOyAgPHJlY3Qgc3Ryb2tlLXdpZHRoPSI2IiBzdHJva2U9IiMwMDEyMTkiIGZpbGw9IiNGOTg4MDAiIHJ5PSIyMCIgcng9IjIwIiBoZWlnaHQ9Ijk1IiB3aWR0aD0iNzIiIHk9IjE1NCIgeD0iMTE0Ii8+JiN4YTsgICYjeGE7ICAmI3hhOyAgPHJlY3Qgc3Ryb2tlLXdpZHRoPSI2IiBzdHJva2U9IiMwMDEyMTkiIGZpbGw9IiNENjBCMUUiIGhlaWdodD0iMTQiIHdpZHRoPSI3MiIgeT0iMTU2IiB4PSIxMTQiLz4mI3hhOyAgJiN4YTsgIDxyZWN0IHN0cm9rZS13aWR0aD0iNiIgc3Ryb2tlPSIjMDAxMjE5IiBmaWxsPSIjRkFGQUZBIiBoZWlnaHQ9IjE0IiB3aWR0aD0iNzIiIHk9IjE3NSIgeD0iMTE0Ii8+JiN4YTsgICYjeGE7ICA8cmVjdCBzdHJva2Utd2lkdGg9IjYiIHN0cm9rZT0iIzAwMTIxOSIgZmlsbD0iI0Q2MEIxRSIgaGVpZ2h0PSIxNCIgd2lkdGg9IjcyIiB5PSIxOTAiIHg9IjExNCIvPiYjeGE7ICAmI3hhOyAgPHJlY3Qgc3Ryb2tlLXdpZHRoPSI2IiBzdHJva2U9IiMwMDEyMTkiIGZpbGw9IiNGQUZBRkEiIGhlaWdodD0iMTQiIHdpZHRoPSI3MiIgeT0iMjA1IiB4PSIxMTQiLz4mI3hhOyAgJiN4YTsgICYjeGE7ICA8cmVjdCBzdHJva2Utd2lkdGg9IjYiIHN0cm9rZT0iIzAwMTIxOSIgZmlsbD0iI0U5N2IyRSIgaGVpZ2h0PSI1NSIgd2lkdGg9IjY1IiB5PSIyMzYiIHg9IjExNCIvPiYjeGE7PC9zdmc+;clipPath=inset(5.89% 21.33% 0% 21.33%);" vertex="1" parent="1">
          <mxGeometry x="823.8" y="724" width="66.28" height="113" as="geometry" />
        </mxCell>
        <mxCell id="YNclxRvdEfs6pl0bdQtO-42" value="" style="shape=image;verticalLabelPosition=bottom;labelBackgroundColor=default;verticalAlign=top;aspect=fixed;imageAspect=0;editableCssRules=.*;image=data:image/svg+xml,PHN2ZyB4bWxucz0iaHR0cDovL3d3dy53My5vcmcvMjAwMC9zdmciIGhlaWdodD0iMzY0IiB3aWR0aD0iMTg1IiB2aWV3Qm94PSI3LjUgNy41IDE4NSAzNjQiPiYjeGE7ICAmI3hhOyAgPHJlY3Qgb3BhY2l0eT0iMC43IiBmaWxsPSIjRjJFOURCIiByeT0iMTAiIHJ4PSIxMCIgaGVpZ2h0PSIyOTAiIHdpZHRoPSIxODAiIHk9IjEwIiB4PSIxMCIvPiYjeGE7ICAmI3hhOyAgJiN4YTsgIDxjaXJjbGUgZmlsbD0iI0UyQzk2RCIgcj0iNTAiIGN5PSI5MCIgY3g9IjEwMCIvPiYjeGE7ICAmI3hhOyAgJiN4YTsgIDxlbGxpcHNlIGZpbGw9IiNGOUQyNUEiIHJ5PSIyNSIgcng9IjMwIiBjeT0iNjIiIGN4PSI4NSIvPiYjeGE7ICA8ZWxsaXBzZSBmaWxsPSIjRjlEMjVBIiByeT0iMjIiIHJ4PSIyNSIgY3k9IjY1IiBjeD0iMTEzIi8+JiN4YTsgIDxlbGxpcHNlIGZpbGw9IiNGOUQyNUEiIHJ5PSIyNiIgcng9IjIyIiBjeT0iNzQiIGN4PSI5OSIvPiYjeGE7ICA8ZWxsaXBzZSBmaWxsPSIjRTlCNjRDIiByeT0iMjAiIHJ4PSIyMCIgY3k9IjgwIiBjeD0iMTIzIi8+JiN4YTsgIDxlbGxpcHNlIGZpbGw9IiNGOUQyNUEiIHJ5PSIyMCIgcng9IjI1IiBjeT0iODUiIGN4PSI5MyIvPiYjeGE7ICA8ZWxsaXBzZSBmaWxsPSIjRTNCRDRFIiByeT0iMjUiIHJ4PSIyMiIgY3k9Ijk4IiBjeD0iMTA5Ii8+JiN4YTsgICYjeGE7ICAmI3hhOyAgPGNpcmNsZSBmaWxsPSIjRTk5RDZFIiByPSIzMiIgY3k9IjExMCIgY3g9IjEwMCIvPiYjeGE7ICAmI3hhOyAgJiN4YTsgIDxjaXJjbGUgZmlsbD0iIzBEMTkxQyIgcj0iNCIgY3k9IjExNCIgY3g9Ijg3Ii8+JiN4YTsgIDxjaXJjbGUgZmlsbD0iIzBEMTkxQyIgcj0iNCIgY3k9IjExNCIgY3g9IjEyMCIvPiYjeGE7ICAmI3hhOyAgJiN4YTsgIDxwYXRoIHN0cm9rZS13aWR0aD0iNSIgc3Ryb2tlPSIjMEQxOTFDIiBmaWxsPSJub25lIiBkPSJNOTcsMTIwQzk3LDEzNCAxMTMsMTM1IDExNSwxMjAiLz4mI3hhOyAgJiN4YTsgICYjeGE7ICA8cmVjdCBmaWxsPSIjRTk3RDFFIiByeT0iMjAiIHJ4PSIyMCIgaGVpZ2h0PSIxNTAiIHdpZHRoPSIxMDAiIHk9IjE1MCIgeD0iNDUiLz4mI3hhOyAgJiN4YTsgICYjeGE7ICAmI3hhOyAgPHJlY3QgZmlsbD0iI0Y4RjVFRSIgaGVpZ2h0PSIyMCIgd2lkdGg9IjEwMCIgeT0iMTUzIiB4PSI0NSIvPiYjeGE7ICAmI3hhOyAgPHJlY3QgZmlsbD0iI0NDMEQxRCIgaGVpZ2h0PSIyMCIgd2lkdGg9IjEwMCIgeT0iMTczIiB4PSI0NSIvPiYjeGE7ICAmI3hhOyAgPHJlY3QgZmlsbD0iI0Y4RjVFRSIgaGVpZ2h0PSIyMCIgd2lkdGg9IjEwMCIgeT0iMTk1IiB4PSI0NSIvPiYjeGE7ICAmI3hhOyAgPHJlY3QgZmlsbD0iI0NDMEQxRCIgaGVpZ2h0PSIyMCIgd2lkdGg9IjEwMCIgeT0iMjE4IiB4PSI0NSIvPiYjeGE7ICAmI3hhOyAgPHJlY3QgZmlsbD0iI0Y4RjVFRSIgaGVpZ2h0PSIyMCIgd2lkdGg9IjEwMCIgeT0iMjQwIiB4PSI0NSIvPiYjeGE7ICAmI3hhOyAgJiN4YTsgIDxyZWN0IGZpbGw9IiNFNTcwMUQiIGhlaWdodD0iNzUiIHdpZHRoPSI1NSIgeT0iMjk0IiB4PSI0NSIvPiYjeGE7ICAmI3hhOyAgJiN4YTsgIDxsaW5lIHN0cm9rZT0iIzAwMDcwQyIgeTI9IjE2OSIgeDI9IjE0NSIgeTE9IjE2OSIgeDE9IjQ1Ii8+JiN4YTsgIDxsaW5lIHN0cm9rZT0iIzAwMDcwQyIgeTI9IjE4OSIgeDI9IjE0NSIgeTE9IjE4OSIgeDE9IjQ1Ii8+JiN4YTsgIDxsaW5lIHN0cm9rZT0iIzAwMDcwQyIgeTI9IjIyNCIgeDI9IjE0NSIgeTE9IjIyNCIgeDE9IjQ1Ii8+JiN4YTsmI3hhOyAgJiN4YTsgIDxsaW5lIHN0cm9rZT0iIzAwMDcwQyIgeTI9IjI5NSIgeDI9IjE0NSIgeTE9IjI5NSIgeDE9IjQ1Ii8+JiN4YTsgIDxsaW5lIHN0cm9rZT0iIzAwMDcwQyIgeTI9IjMwMCIgeDI9IjE0NSIgeTE9IjI5OSIgeDE9IjQ1Ii8+JiN4YTsmI3hhOzwvc3ZnPg==;clipPath=inset(2.33% 3.29% 22% 3.29%);" vertex="1" parent="1">
          <mxGeometry x="704.24" y="724" width="70.66" height="113" as="geometry" />
        </mxCell>
        <mxCell id="YNclxRvdEfs6pl0bdQtO-43" value="" style="endArrow=async;html=1;rounded=0;strokeWidth=3;endFill=1;endSize=17;strokeColor=default;" edge="1" parent="1">
          <mxGeometry width="50" height="50" relative="1" as="geometry">
            <mxPoint x="80" y="320" as="sourcePoint" />
            <mxPoint x="910" y="320" as="targetPoint" />
          </mxGeometry>
        </mxCell>
        <mxCell id="YNclxRvdEfs6pl0bdQtO-45" value="&lt;b&gt;&lt;font style=&quot;font-size: 20px;&quot;&gt;Step 900&lt;/font&gt;&lt;/b&gt;" style="text;html=1;align=center;verticalAlign=middle;whiteSpace=wrap;rounded=0;fontSize=14;" vertex="1" parent="1">
          <mxGeometry x="793" y="280" width="90" height="40" as="geometry" />
        </mxCell>
        <mxCell id="YNclxRvdEfs6pl0bdQtO-46" value="&lt;b&gt;&lt;font style=&quot;font-size: 20px;&quot;&gt;Step 30&lt;/font&gt;&lt;/b&gt;" style="text;html=1;align=center;verticalAlign=middle;whiteSpace=wrap;rounded=0;fontSize=14;" vertex="1" parent="1">
          <mxGeometry x="81" y="280" width="79" height="40" as="geometry" />
        </mxCell>
      </root>
    </mxGraphModel>
  </diagram>
</mxfile>
